<?xml version="1.0" encoding="UTF-8"?>
<svg id="Calque_1" data-name="Calque 1" xmlns="http://www.w3.org/2000/svg" viewBox="0 0 230.97 369.94">
  <defs>
    <style>
      .cls-1 {
        fill: #fff;
      }
    </style>
  </defs>
  <path class="cls-1" d="M47.77,341c1.17,2.27,3.08,4.06,4.47,6.17l.53-.19c.42-2.11,1.26-4.31,2.49-6.08.49-.7,2.72-2.77,2.78-2.97.53-1.83-1.48-5.54-1.97-7.4-.83.85-1.51,2.68-2.65,3.21-3.5,1.62-7.23-2.47-8.74-5.21-3.26-5.93-5.08-21.36-3.94-27.98l1.18-4.16c-16.17,6.3-2.96,22.99,1.42,33.05,1.6,3.67,2.67,8.17,4.43,11.56Z"/>
  <path class="cls-1" d="M15.4,229.48c-6.91,2.79-9.8,16.92-7.15,23.31.63,1.52,2.79,4.47,4.36,5,.37.12.47-.05.37-.41-.23-.81-.78-1.68-1.03-2.61-.33-1.24-.85-5.91,1.08-3.22,2.23,3.1,3.09,8.6,8.31,8.28-1.04-1.29-3.8-6.22-2.87-7.65.24-.37,1.03-.23,1.39-.08.74.3,2.09,3.53,2.75,4.47,2.13,3.03,4.72,4.09,8.3,2.66-1.17-1-2.24-1.98-2.96-3.37-.57-1.1-2.52-6,.54-4.35.75.4,1.98,3.28,2.93,4.26,2.1,2.17,6.87,3.84,8.62.49,1.56-2.99-.58-3.2-1.44-5.24-1.13-2.67-.39-7.38.88-9.91l.7.38.36,7.39c0,.07.66,1.14.8,1.22,2.55.21,3.56-3.55,3.65-5.56.58-14.17-18.68-19.47-29.6-15.06Z"/>
  <path class="cls-1" d="M149.22,312.73c3.4.46,12.38-3.16,15.9-4.55,1.51-.6,5.75-2.96,6.97-2.82,1.89.21,3.78,5.85,4.09,7.59.42.74.63-.36.79-.55.81-.94,1.76-1.75,2.33-2.87-1.55-1.13-2.31-4.82-2.25-6.74.11-3.24,2.6-5.68,3.13-8.79l-4.93,3.24c-.76.98-1.28,5.08-1.95,5.31-1.66.57-1.34-2.91-1.11-3.77-3.48,1.27-4.71,3.95-5.4,7.4-1.99.03-.72-3.79-1.02-4.06-1.45-.07-2.72.73-3.62,1.82-.7.84-1.82,3.89-2.12,4.09-.33.22-.72.17-1.09.19l-.03-1.99,1.01-3.27c-1.96.94-4.14,1.55-5.23,3.63-.63,1.2-1.96,7.17-2.36,1.54-.03-.39.55-1.84-.18-1.49-.84.4-5.05,4.46-4.7,5.17.47.54,1.06.85,1.77.94Z"/>
  <path class="cls-1" d="M50.88,322.57c1.44.07,2.73-5.56,3.75-4.86l5.96,20.15c.07,2.06-3.42,3.03-3.61,5.24,6.47,2.14,13.76,3.59,20.62,3.65,4.77.04,8.26-1.14,12.61-2.81.47-.5-5.38-3.81-5.87-4.05-5.86-2.87-8.71-4.4-15.35-2.51-1.76.5-3.17,1.82-5.12.59-.08-1.05,3.96-2.63,4.85-2.92,1.82-.59,3.73-.99,5.64-1.03l-1.14-2.98c-1.6.19-3.3.06-4.89.26-1.9.24-4.89,1.63-6.24,1.69-1.5.07-.92-1.03-.2-1.77,2.04-2.09,7.71-2.66,10.55-2.59-.48-.87-.63-2.59-1.04-3.32-.69-1.23-4.53-.36-5.72-.06-1.1.28-5.53,2.46-6.22,1.55-.2-1.13.98-1.63,1.73-2.22l5.17-2.5-3.52-1.75-4.48.76,1.25-2.39c-8.09-5.28-14.03-13.2-11.85-23.42-2.72-.05-2.82.24-3.3,2.63-.88,4.37-.28,9.43.58,13.79.45,2.29,2.59,11.32,5.83,10.87Z"/>
  <path class="cls-1" d="M91.62,353.73c-12.23,2.8-31.81,4.42-41.51-5.2-5.23-5.19-6.39-11.63-9.18-18.14-2.01-4.69-4.7-9.01-6.76-13.6-2.14-4.76-4.13-10.41-2.01-15.52-14.2,6.77-.1,21.6,3.9,30.46,4.03,8.93,3.92,17.28,12.91,23.25,8.71,5.78,21.36,6.13,31.48,5.09,1.54-.16,10.55-1.72,11.18-2.54.31-.4.64-3.65-.01-3.8Z"/>
  <path class="cls-1" d="M179.62,305.14c.06.47.55,3.02,1.24,2.68,4.47-5.28,8.72-10.78,14.09-15.21,4.43-3.65,9.87-7.19,15.81-6.98-7.67-5.1-16.5-1.87-23.42,2.96-.71.49-3.35,2.4-3.69,2.93-.59.94-.98,3.2-1.5,4.4-1.53,3.55-3.12,4.93-2.54,9.22Z"/>
  <path class="cls-1" d="M89.53,346.85c-6.72,3.2-15.55,2.31-22.71,1.12-3.74-.62-7.33-1.84-10.98-2.81l-1.54,3.43c8.91,5.48,21.14,5.56,31.22,3.77,4.41-.78,8.03-.87,5.61-6.55-.09-.07-1.26.88-1.59,1.04Z"/>
  <path class="cls-1" d="M208.57,288.21c-13.66,1.95-29.94,26.84-38.63,37.15-4.57,5.43-20.87,20.53-21.69,26.36-.28,1.99.34,4.81,2.65,5.15,1.01-3.1,3.38-6.22,5.47-8.78,5.22-6.41,11.84-12.43,17.33-18.81,8.91-10.35,22.51-31.82,35.1-36.16,3.1-1.07,6.4-1.71,9.46-.19-1.81-4.51-5.15-5.38-9.69-4.73Z"/>
  <path class="cls-1" d="M144.5,351.97c-.1-.18-1.96-1.45-2.44-1.93-3.53-3.53-6.18-9.77-7.29-14.6-1.16.64-2.29-.21-3.3-.82-4.09-2.47-6.42-6.81-6.51-11.57-5.89-7.99-10.4-16.93-16.57-24.71-7.09,6.41-14.95,12-23.46,16.38-.33.31-.52,2.3-.74,2.99-1.44,4.48-6.02,5.92-10.34,5.92l4.45,9.94c5.19,3.26,12.7,4.54,15.35,10.76,1.43,3.36.32,6.08,1.6,9.26l49.83,1.92c-.69-.99-.07-2.62-.58-3.54ZM98.36,349.68c-.01-.25-.03-.52-.04-.8-.07-1.7-.16-3.82-1.17-6.2-2.45-5.76-7.89-8.23-12.26-10.21-1.29-.59-2.53-1.15-3.63-1.75l-1.82-4.07c4.18-1.25,7.13-3.97,8.38-7.86.15-.46.24-.97.34-1.51,6.78-3.63,13.33-8.11,19.54-13.34,2.23,3.12,4.28,6.4,6.42,9.82,2.18,3.49,4.43,7.09,6.91,10.54.5,5.66,3.54,10.66,8.32,13.55.09.05.17.11.26.16.46.29,1.16.72,2.04,1.04,1.24,3.96,3.34,8.65,6.22,12.15l-39.5-1.53Z"/>
  <path class="cls-1" d="M36.95,219.69c-.84-1.06-5.5-2.4-6.95-2.72-4.35-.93-8.87-1.18-13.11.35-.07,0-.14,0-.21,0-.64.25-1.21.51-1.71.75-.06.05-.12.09-.18.14-.11.03-.21.07-.32.11-.83.44-1.36.78-1.47.86-2.34,2.01-2.07,6-1.98,9.05l3.17-1.7c.06,0,.13-.02.2-.04.59-.18,1.18-.37,1.75-.58v.15c5.34-1.83,11.96-1.94,17.39-.31.61.18,3.22,1.51,3.48,1.21-.33-1.65.88-6.1-.06-7.28Z"/>
  <path class="cls-1" d="M84.07,68.32c3.87-.1,7.76-.63,11.54-1.43,17.21-3.63,28.49-16.28,43.61-24,10.23-5.22,24.55-9.33,35.7-4.86,1.55.62,3,1.74,4.59,2.29-2.67-2.91-6.48-4.64-10.3-5.5-13.01-2.93-25.6,1.88-37.42,6.82-16.75,7-33.17,15.87-47.72,26.68Z"/>
  <path class="cls-1" d="M70.4,116.45c1.12-.15,4.48-.87,4.42-2.27-1.76-5.44-1.88-12.05-3.96-17.3-2.07-5.21-8.18-10.87-14.18-9.6-7.06,1.49-6.91,10.2-5.06,15.54,2.77,8,9.78,14.85,18.78,13.62ZM56.57,91.9c5.19-1.27,10.91,5.55,11.62,10.24.04.29.36,2.64-.3,2.36-.84-.76-1.85-3.43-2.8-3.85-.98-.43-1.48,1.86-1.52,2.56-.13,2.47.82,4.18,2.74,5.63.28.59-.7.47-.95.47-5.07.02-6.36-8.17-2.59-10.99-.81-.75-1.58-1.54-2.58-2.05-.32-.16-2.2-.87-2.36-.86l-3.97.19c.42-1.05,1.59-3.42,2.7-3.69Z"/>
  <path class="cls-1" d="M119.08,116.66c-.7-.13-1.32-.24-1.94-.59-.37.42,1.6,1.56,1.92,1.77,6.1,4.13,20.52,7.97,23.61-1.38-.92-.06-1.75.52-2.6.64-6.57.99-14.43.73-20.98-.45Z"/>
  <path class="cls-1" d="M149.48,110.09c-10.43,2.16-21.22,3.19-31.8,1.48-1.1-.18-4.86-1.33-5.37-1.3-.66.04-.88.98-.89,1.53,2.93,1.26,5.99,2.14,9.15,2.64,8.12,1.3,18.35,1.44,25.82-2.32l3.09-2.03Z"/>
  <path class="cls-1" d="M152.9,109.92c-.65,1.59-4.44,3.52-5.05,4.44-.24.37-.46,1.8-.82,2.53-3.83,7.83-11.48,9.26-19.5,7.75-6.82-1.28-12.7-5.29-17.21-10.43-.53.44-.27,1.5-1.16,1.42l-1.82-3.47c-.4,0-.43,1.01-.45,1.29-.33,6.02,4,12.81,8.6,16.41,2.16,1.69,7.73,4.76,10.39,4.98.36.03.55-.05.38-.43-.37-.81-1.43-2.01-1.92-3.07-.52-1.11-1.09-2.25-1.14-3.5,7.02,2.69,15.93,2.3,21.96-2.45.5,2.46-.35,5.11-1.42,7.34-.16.6,2.17-1.28,2.4-1.49,3.99-3.67,7.17-10.28,7.45-15.73.08-1.49-.17-3.38-.24-4.93,0-.04-.37-.7-.44-.66Z"/>
  <path class="cls-1" d="M157.78,83.19c-1.04-5.03-.26-10.21-.78-15.29-.34-3.3-2.07-12.63-4.15-15.03-2.88-3.33-14.61-3.07-18.62-1.68l-16.75,10.57c-.04.71.02.43.42.53.72.17,1.56.15,2.31.34,3.09.83,4.45,3.35,4.21,6.46-3.14.12-6.31-.2-9.45.19-4.06.5-9.24,2.47-12.61,4.78-1.4.96-3.86,3.88-4.78,4.29-.58.26-.46-.56-.45-.93.14-3.09,1.12-5.67,3.17-7.98-6.2,2.12-12.77,2.89-19.32,3.14-.02,4.4-1.7,9.06-1.82,13.38-.12,4.29,1.12,12.71,2.63,16.74,1.62,4.33,5.8,8.46,9.06,11.63.44-.26-1.27-2.83-.13-2.46.66.22,3.35,2.35,4.13,2.94,1.85,1.41,3.5,3.12,5.56,4.25.84.03.12-.29.11-.41-.15-1.53-.15-3.11-.23-4.65-.34-6.99,10.16-12.5,16.27-12.18.31.02,2.6.34,2.1.99l-2.13,1.2c2.43-.21,4.65-.67,7.11-.35-2.54-1.96-3.02-5.2-.21-7.12.17,1.89.54,3.41,2.4,4.28,3.3,1.53,5.06-1.11,7.92-.95,1.24.07,2.34,1.05,3.54,1.29,2.7.54,6.38-1.23,6.97-4.04,1.25-5.96-4.43-6.35-7.56-9.72-3.13-3.37-5.98-10.74-2.63-14.68.69-.32.46,1.91.52,2.3.6,3.69,1.49,7.67,4.08,10.49,2.42,2.63,6.43,3.24,8.13,6.61,1.31,2.59,1.38,6.3-.81,8.4-.03.84.3.12.41.11l4.93-.24c.57-.03,2.85.76,3.46,1.08,4.24,2.18,4.36,6.83,3.3,10.93.95-1.05,1.54-2.7,2.04-4.03,1.99-5.27,2.58-8.36,1.37-14.02-.83-3.86-2.96-7.47-3.73-11.18ZM121.77,82.11l-1.06.02c-.65-2.33-3.55-4.22-5.98-3.78,1.14,2.05,2.1,3.9,1.96,6.35-.23,3.96-4.21,5.97-6.69,2.48-1.5-2.11-.95-3.77-.62-6.1-2.33,1.04-2.48,3.71-3.84,5.55-1.72-.55-.77-3.86-.22-5.18,3.07-7.33,16.36-9.47,16.45.67ZM151.68,79.53c-1.63-1.81-2.33-4.63-5.25-4.89-2.84-.25-.9,1.5-.47,2.56.78,1.92,1.14,5.26-.32,6.93-1.73,2-5.86,1.09-7.04-1.11-3.09-5.77,3.3-12.82,9.59-10.31,2.16.86,4.72,4.51,3.48,6.82ZM156.28,69.98l-1.59-1.56c-4.68-3.48-14.76-2.09-19.87.14-.08-2.68.76-5.7,2.94-7.39,3.6-2.79,11.52-2.35,15,.58,2.14,1.81,4.15,5.41,3.51,8.23Z"/>
  <path class="cls-1" d="M75.13,131.98l-.21,1.23c12.45,4.87,23.48,12.73,35.3,18.9,5.12,2.67,10.45,4.94,15.56,7.65.72.03,5.47-6.13,6.16-7.15.18-.27,1.13-1.48.91-1.66-7.95.65-16.31-1.21-23.9-3.48-14.58-4.38-27.24-11.13-32.3-26.38-.25-.77.07-2.04-.93-1.66-.84.32-1.63.81-2.52,1l1.94,11.56Z"/>
  <path class="cls-1" d="M79.89,66.88l5.85-4.24c9.62-6.33,19.67-12.07,29.93-17.31,10.09-5.15,20.59-10.27,31.64-13.03-3.04-11.79-9.23-21.06-21.68-23.81-13.42-2.97-31.44,3.49-43.38,9.68-1.22.63-5.47,2.83-6,3.71-.56.9-1.2,3.82-1.43,4.98-1.39,7.02-1.14,14.69.1,21.71,1.1,6.25,3.15,12.26,4.98,18.31ZM122.74,14.26c4.26,1.84,5.78,7.48,1.7,10.39,3.48.18,6.98,2.78,7.44,6.36,1,7.77-10.41,9.34-15.69,11.13-3.78,1.28-7.5,2.84-11.26,4.04l-.81-5.82c.18-.63,2.02-.69,2.66-.87l-3.25-16.28-2.97.97-.45-6.02c6.01-1.9,16.58-6.51,22.63-3.89Z"/>
  <path class="cls-1" d="M118.71,22.2c1.27-4.9-5.7-2.92-8.19-2.06l1.07,5.12c1.88-.07,6.56-.92,7.12-3.06Z"/>
  <path class="cls-1" d="M113.2,30.41l1.43,6.5c2.44-.15,10.86-2.31,8.71-6-1.75-3.01-7.46-1.1-10.14-.5Z"/>
  <path class="cls-1" d="M141.35,166.8c-.82-1.25-2.35-5.06-3.41-5.47-2.72-1.04-.38,3.03.12,3.91,3.49,6.14,8.29,8.39,9.42,16.43.33,2.33-.21,4.51.37,6.67,1.64,1.04,1.12-5.98,1.06-6.51-.89-7.8-3.78-9.26-7.55-15.03Z"/>
  <path class="cls-1" d="M171.7,227.49c-4.77,1.54-3.47,7.81-1.77,11.33,1.01,2.09,2.98,4.65,5.56,4.39.28-.27-1.97-3.22-2.24-3.73-1.88-3.58-2.38-8.05-1.55-11.99Z"/>
  <path class="cls-1" d="M192.54,240.69c-3.44-3.51-5.52-7.39-5.44-12.46.01-.86.57-1.85.31-2.63-.51-1.53-2.69-2.25-4.17-1.92-2.8.62-2.6,5.02-2.24,7.24.65,3.96,4.59,11.32,9.13,11.56.79.04,2.29-.05,2.94-.47,1.08-.71-.06-.84-.53-1.32Z"/>
  <path class="cls-1" d="M178.16,224.97c-3.29-.31-4.07,2.56-4.14,5.27-.16,5.94,3.7,14.25,10.79,12.78-5.02-4.45-8.24-11.27-6.65-18.05Z"/>
  <path class="cls-1" d="M155.02,239.55c3.75-.19,7.48-.8,11.18-1.37l-.04-.82-11.18,1.37.04.82Z"/>
  <path class="cls-1" d="M172.4,224.85c.85-.47,1.06-2.33,3.4-2.93,1.83-.47,3.82.28,4.5.14.5-.11,1.58-1.2,2.74-1.42,2.89-.54,5.31.6,7,2.9,3.29-1.55,6.09-.65,8.43,1.94.74.82,2.3,3.71,3.07,3.82,5-.82,10.25-.84,15.09-2.28,1.15-.84,1.37-2,1.5-3.34.53-5.52.27-11.69.52-17.3.58-12.83,2.09-26.89,1.9-39.6-.04-2.85-1.37-3.43-4.05-2.87l-56.01,14.2c.44,3.49,1.18,6.98,1.6,10.48,1.26,10.41,2.27,22.93,1.33,33.36-.33,3.62-1.01,7.17-3.32,10.06l-4.45,4.2,9.78-1.33c-.3-3.13-.04-6.64,2.64-8.72,1.82-1.42,3.23-.73,4.31-1.32ZM187.81,186.92c.35,1.76-.64,3.75-1.86,4.98-.59.6-2.46,2.27-2.79.87-.68-2.88,2.02-5.36,4.65-5.85ZM181.15,194.13c.8.07,1.68.68,2.24.66.76-.02,2.15-.97,3.03-1.15,1.99-.42,3.51-.08,4.79,1.52-1.51,2.14-3.4,4.03-2.08,6.89,1.01,2.2,3.18,1.27,1.61,4.39-.71,1.4-2.85,4.26-4.42,4.64-1.4.34-2.45-.95-3.82-.87-1.79.1-3.05,2.64-5.32.41-4.49-4.41-4.24-17.24,3.96-16.49Z"/>
  <path class="cls-1" d="M230.93,166.22c-.46-4.31-3.85-8.23-7.96-9.83l-3.14-.73c-.36-.03-.72-.04-1.08-.02-2.09.07-5.12.87-8.88,1.91-.92.26-1.79.5-2.44.66-5.36,1.34-10.77,2.81-16.01,4.23-4.93,1.34-10,2.71-15.05,3.98-.19-.68-.33-1.16-.46-1.52-3.52-9.73-8-19.45-16.63-25.58.14-.21.28-.41.42-.62.85-1.26,1.73-2.56,2.53-3.96,8.68-15.14,10.62-30.16,5.77-44.63-.36-1.07-.85-2.22-1.38-3.45-.75-1.75-1.79-4.15-1.84-5.29l-.75-15.2c4.01-.48,8.93-1.62,13.56-3.69,9.67-4.35,12.19-10.23,12.58-14.44l.07-1.82c-.05-3.97-1.48-7.67-4.2-10.8-2.46-2.83-5.97-5.18-10.17-6.82-6.49-2.53-14.25-3.22-22.19-2.03-3.32-9.83-8.41-16.77-15.48-21.15C131.53,1.3,123.47-.49,114.24.11c-7.21.47-15,2.39-23.17,5.69-.24.1-.47.21-.68.33-.19-.09-.4-.17-.62-.24-3.09-.98-6.73-.89-9.98.26-3.59,1.27-6.38,3.66-7.87,6.72-.25.52-.44,1.11-.65,1.83-.37.2-.76.4-1.06.56-1.1.58-1.73.92-2.14,1.17-10.65,6.78-17.65,14.69-21.41,24.19-3.57,9.04-4.21,19.6-1.95,32.29.62,3.46,1.48,7.06,2.74,11.45-2.75,3.08-4.27,6.94-4.44,11.32-.24,6.37,2.32,12.47,5.47,17.09-4.89,2.05-9.01,5.48-11.39,9.65-2.25,3.94-2.82,8.24-1.7,12.57-3.32,4.74-4.22,10.95-2.43,16.67-5.15,4.34-11.23,9.87-16.39,16.32-6.12,7.64-10.07,15.41-12.09,23.77-1.72,7.12-2.26,15.07-1.47,21.8.17,1.42.43,2.55.64,3.46.33,1.41.53,2.26.34,3.83-.4,3.38-.46,5.91-.19,8.76.06.61.21,1.18.37,1.71-.09.15-.19.29-.26.41-.55.84-.89,1.38-1.14,1.89-2.11,4.41-3.11,10.11-2.66,15.26.57,6.65,3.5,11.71,8.25,14.24,1.99,1.06,3.34,1.19,4.66,1.24.34.01.55.02.77.06.17.08.47.26.7.39,1.17.68,2.77,1.6,4.79,1.82,2.06.22,3.58-.26,4.49-.54.11-.03.24-.08.34-.1.16.03.45.13.68.2,1.3.42,3.27,1.04,6.28.42,1.29-.27,2.47-.96,3.43-1.53.34.05.73.09,1.18.06,2.17-.12,4.95-.45,7.3-2.03,2.3-1.55,3.72-3.92,4.35-7.24.04-.2.06-.39.08-.58.39-.26.76-.54,1.09-.88,4.64-4.72,3.62-13.15,3.36-14.8-.66-4.26-3.07-8.15-7.37-11.85.15-.73.28-1.5.35-2.3.07-.84,0-1.59-.07-2.2,0-.01,0-.03,0-.04.13-.19.27-.4.41-.6.1,1.04.31,2.15.69,3.38,1.18,3.89,3.45,6.21,6.03,8.16,0,.12,0,.25,0,.37-.05,2.46-.1,5,.62,7.5.72,2.5,2.11,4.5,4.13,5.97.97,7.09,4.34,13.91,10.03,20.31.29.33.76.78,1.63,1.62.29.28.69.67,1.08,1.05-1.52,2.95-4.24,5.33-6.81,7.32-.73.56-3.97,2.9-5.6,4-.57-.1-1.24-.2-1.97-.19-4.05.1-7.25,2.11-9.54,5.99-4.25.5-8.45,2.01-11.58,4.23-.61.43-1.2,1.03-1.77,1.61-.1.1-.23.23-.34.34-.24.08-.52.16-.86.24-1.13.29-2.68.7-4.48,1.91-6.2,4.17-8.79,9.58-7.69,16.09.86,5.08,3.91,10.05,6.6,14.44,1.22,1.98,2.36,3.85,3.23,5.58,1.3,2.59,2.23,5.41,3.22,8.39,1.28,3.89,2.59,7.86,4.78,11.48l-2.42.12-.34.08c-1.26.29-2.68.4-4.19.52-1.29.1-2.63.21-3.98.44-.95.16-2.79.51-4.43,1.08-3,1.04-4.56,2.71-4.63,4.96-.03.87.2,3.04,2.87,4.46.92.49,2.1.89,3.72,1.27,3.89.91,8.29,1.53,13.46,1.9l.06-.85-.03.85h.09c2.14.15,4.4.26,6.93.34,22.46,1.03,79.21,3.28,121.6,1.96,1.48-.03,2.98-.06,4.51-.09,3.76-.07,7.73-.13,11.73-.33,5.37-.26,10.79-.76,15.82-1.78,1.92-.39,3.48-.84,4.66-1.35,3.2-1.37,3.88-3.41,3.89-4.88,0-1.12-.4-3.22-3.25-4.62-1.07-.52-2.51-.98-4.41-1.39-3.1-.67-6.63-.93-9.74-1.16-.42-.03-.82-.06-1.23-.09-1.87-.14-3.76-.25-5.63-.33,3.93-3.63,7.66-7.44,11.3-11.15,3.13-3.19,6.37-6.5,9.65-9.6,1.36-1.29,2.84-2.61,4.4-4,9.48-8.46,21.27-19,19.35-34.04-.99-7.78-7.83-14.06-14.17-16.83-14.08-6.15-24.74,1.43-34.14,8.11-3.51,2.5-6.83,4.86-10.29,6.57-.22.11-.45.21-.69.32-2-2.3-4.79-3.95-7.15-4.67-.97-.3-1.87-.43-2.6-.52-1.53-2.45-3-5-4.42-7.47-2.51-4.37-5.1-8.85-8.17-13.08,2.8-3.38,5.07-7.17,6.9-11.51.29-.69.58-1.62.88-2.6.16-.52.39-1.27.58-1.81.43-.25.92-.57,1.36-.97,1.31-1.19,2.31-2.53,2.97-3.96l8.26-1.13c2.85,3.42,7.12,5.16,11.29,4.43.57-.1,1.05-.27,1.42-.43.15.05.3.1.43.14,1.18.39,2.79.93,4.56.85h.03c1.68-.09,3.02-.71,3.94-1.21.45.15.96.29,1.51.34,2.52.23,4.93-.23,6.97-1.34.32-.18.63-.39.97-.65.09.02.18.04.27.05,4.15.72,8.23-.25,11.18-2.65,1.79-1.46,3.07-3.38,3.74-5.57.33-.04.67-.08,1.02-.12,4.54-.51,10.77-1.21,13.48-7.5.84-1.94,1.05-4.34,1.22-6.27.02-.28.05-.54.07-.8,1.08-11.04,1.55-22.42,2.01-33.41.33-7.95.67-16.17,1.24-24.13l.02-.35-.04-.35ZM223.89,224.2c-.17,1.79-.3,4.3-.99,5.9-2.42,5.59-9.33,4.61-14.28,5.75-.2,5.85-5.51,8.72-10.89,7.79-.52-.09-1.45-.64-1.76-.56-.19.05-1.47,1.28-2.01,1.57-1.45.79-3.09,1.04-4.74.88-.67-.06-1.87-.71-2.2-.63-.88.2-2.12,1.41-3.81,1.5-1.8.1-3.83-1.1-5.01-1.12-.66-.01-1.24.5-1.89.61-3.71.65-7.06-1.62-8.76-4.78l-13.13,1.8c-.2,1.81-1.25,3.39-2.58,4.59-.49.45-1.61.92-1.85,1.27-.59.84-1.41,4.2-1.95,5.49-2.04,4.85-4.7,9.05-8.36,12.83,6.02,7.48,10.09,16.28,15.3,24.31,1.29.33,2.5.29,3.82.69,2.68.83,5.87,3.18,6.8,5.91,1.25-.72,2.64-1.15,3.93-1.79,13.37-6.64,24.41-21.91,41.12-14.61,5.42,2.37,11.08,7.63,11.86,13.74,1.94,15.23-12.95,25.63-22.56,34.71-8.47,8.01-16.14,16.81-25.03,24.37-.96.81-1.99,1.74-3.15,2.25l.16.54c5.02.2,10.07.28,15.08.66,3.32.25,7.21.48,10.43,1.18,7.48,1.63,4.81,3.44-.83,4.58-9.89,2.01-21.31,1.89-31.39,2.12-42.93,1.33-101.44-1.05-121.35-1.96-2.3-.07-4.59-.17-6.84-.33-.08,0-.12,0-.12,0h.04c-4.46-.32-8.79-.86-12.84-1.81-7.48-1.75-1.5-3.48,2.22-4.11,2.73-.46,5.69-.38,8.41-1.01l10-.48c-7.87-6.37-8.36-16.64-12.63-25.15-4.88-9.73-16.98-22.01-3.45-31.11,2.09-1.41,3.64-1.22,5.25-2.04.39-.2,1.63-1.65,2.28-2.11,3.28-2.32,7.81-3.58,11.8-3.68,1.37-3.13,3.47-5.73,7.17-5.82.9-.02,2.12.4,2.76.31.43-.06,6.26-4.29,7.1-4.94,3.84-2.97,7.52-6.43,8.96-11.23-.03-.39-3.71-3.76-4.32-4.45-5.04-5.67-8.72-12.32-9.27-20.06-5.58-2.63-4.42-8.34-4.51-13.49-2.88-1.98-5.14-3.79-6.2-7.29-1.27-4.19-.14-6.61.13-10.6.32-4.6.39-9.23.45-13.84l-3.67,2.16c.29,5.09-.37,10.39-2.67,14.97-.46.93-2.96,4.27-3.01,4.6-.12.88.19,2,.11,2.97-.12,1.4-.51,2.79-.81,4.15,3.59,2.7,7.14,6.25,7.86,10.93.53,3.46.32,8.81-2.28,11.46-.47.47-1.98,1.2-2.13,1.47-.27.5.02,1.37-.1,2-.89,4.71-3.62,5.86-8.01,6.09-.57.03-1.17-.27-1.63-.2-.55.08-2.37,1.5-3.56,1.75-3.23.67-4.39-.75-6.31-.71-1.15.02-2.23.9-4.26.68-1.98-.22-3.73-1.84-4.89-2.11-1.79-.41-2.47.16-4.61-.98-7.94-4.23-7.27-17.31-3.9-24.35.35-.74,1.94-2.93,2-3.38.07-.6-.53-1.93-.6-2.68-.26-2.81-.15-5.16.18-7.93.42-3.52-.59-4.86-.98-8.21-.77-6.58-.16-14.01,1.39-20.43,4.09-16.93,16.37-29.11,29.36-39.81-2.78-5.58-2.14-12.47,2.11-17.06-4.23-10.75,5.7-19.36,15.52-20.93-7.37-7.2-12.73-21.53-3.42-29.34-1.31-4.36-2.5-8.79-3.3-13.29-4.14-23.2,1.56-39.74,21.61-52.5.7-.44,4.2-2.18,4.38-2.43.16-.22.56-2.05.89-2.73,2.2-4.54,8.49-6.45,13.15-4.97.63.2,1.44.96,1.97.88.42-.06,1.4-.83,1.98-1.07,13.48-5.45,30.55-8.77,43.62-.67,8.08,5.01,12.33,13.37,14.83,22.3,7.63-1.68,16.13-1.67,23.48,1.2,6.59,2.57,12.5,7.62,11.83,15.35-.89,10.34-17.79,14.84-26.35,14.94l.93,19.02c.14,2.76,2.5,7.03,3.42,9.78,4.85,14.49,1.95,28.53-5.45,41.45-1.53,2.68-3.46,5.1-4.96,7.79,9.93,5.22,14.7,15.55,18.36,25.65.31.85,1.12,4.21,1.38,4.54.22.28.44.29.75.18,11.38-2.78,22.64-6.1,34.01-8.94,2.66-.66,8.09-2.38,10.5-2.46,3.73-.13,7.76,3.34,8.16,7.09-1.36,18.99-1.4,38.52-3.25,57.44Z"/>
  <path class="cls-1" d="M194.51,226.41c-2.57-1.42-4.59-.2-4.51,2.74.15,5.51,5.55,12.87,11.71,11.28,2.03-.52,3.94-2.34,4.15-4.47-6.76,1.66-6.92-7.1-11.35-9.55Z"/>
  <path class="cls-1" d="M220.73,220.55c-.38,5.45-.25,8.88-6.5,10.06l-11.31,1.38c.71,1.1,2.58.74,3.75.65,2.55-.2,9.82-1.02,11.73-2.18,2.85-1.72,2.95-5.57,3.22-8.58,1.37-15.2,2.2-32.03,2.61-47.3.08-2.9.51-6.56-.86-9.14l-2.64,55.12Z"/>
  <path class="cls-1" d="M99.05,242.02c-1.94-.12-3.88-.3-5.81-.52-27.5-2.74-33.27-7.7-33.27-7.7-.6-.06-.33.08-.37.43-.64,4.59-.32,7.58,4.54,8.96,0,0,1.37.57,3.88,1.38,2.17.86,5.65,1.91,5.87,1.7,4.53,1.18,10.45,2.42,17.4,3.19.84.1,1.56.17,1.88.21,14.92,1.74,35.36,1.27,49.89-2.54,1.45-.38,5.27-1.34,6.3-2.14,1.62-1.25,1.95-4.98,2.03-6.91-6.44,1.76-13.09,2.53-19.73,3.16-10.8,1.03-21.74,1.44-32.6.77Z"/>
  <path class="cls-1" d="M148.56,194.61c1.46.02.8-3.93.46-4.12l-.8.02c.34.75-.62,3.95.34,4.1Z"/>
  <path class="cls-1" d="M102.58,202.36c1.06-1.07.33-2.66.78-4.02l-.3-.54-.83-.08c-.28.65-.94,5.03.36,4.64Z"/>
  <path class="cls-1" d="M103.71,195.14c.09-3.57.77-6.13,2.27-9.31,2.75-5.85,8.38-12.83,8.15-19.57-.02-.55-.56-3.62-.82-3.85-.39-.35-1.34-.48-1.53.19-.24.86.35,2.02.4,2.95.55,10.38-10.53,18.29-10.43,28.5.01,1.44.7,1.28,1.95,1.09Z"/>
  <path class="cls-1" d="M160.05,219.14c.85-18.15-2.87-34.22-4.48-51.88-.1-1.04-.45-7.15-.08-7.55.63-.16.44.05.63.32.41.57.67,1.5.9,2.18,1.33,4.07,1.82,8.42,3.04,12.52l10.3-2.58c-2.97-10.07-7.38-21.72-16.7-27.43-1.04,7.56-6.1,13.08-11.71,17.75,1.73,3.95,5.22,6.67,7.11,10.54,1.89,3.88,2.75,9.33,2.54,13.63-.04.9-.59,2.13-.56,2.77.03.61.65,1.45.78,2.18.53,2.96-1.46,6.6-4.72,5.21-2.21-.94-1.25-4.8-1.41-6.58-.09-1.06-.63-2.03-.67-3.26-.12-3.16.29-4.48-.77-7.77-1.48-4.6-3.81-5.88-6.36-9.42-1.09-1.5-1.86-3.32-2.97-4.82-1.22.39-3.37,1.18-4.57.73-.39-.15-.42-.04-.37-.6l4.26-1.89c-.44-2.5.76-4.7,3.48-4.51.85.06,2,.91,2.26.88.83-.08,5.8-5.27,6.56-6.27,2.04-2.67,3.11-5.62,3.53-8.95l-3.8,2.7c-2.79,1.65-5.85,2.72-8.99,3.49-2.73,4.96-6.13,9.81-10.68,13.23-7.74-4.02-15.74-7.54-23.41-11.68-10.51-5.67-20.5-12.48-31.56-17.1-4.73-1.97-9.85-3.32-14.53-5.31-2.64-1.12-4.93-1.47-4.81-4.81.09-2.69,2.15-2.36,2.21.04,4.98-2.08,10.48-2.68,15.81-1.88l-.73-2.37c-1.99-.42-3.94-.28-5.95-.79-1.47-.37-2.92-1.16-4.33-1.71-7.85.41-18.62,5.67-16.67,15.08.88,4.23,5.32,5.38,8.27,7.75-3.06.44-6.07-.16-8.6-1.92-2.13,2.46-2.85,6.54-1.92,9.63.2.66.47,1.92,1.28,1.58,1.84-.78,3.88-2.39,5.89-3.3,18.13-8.19,31.88,4.11,47.79,11.17,4.55,2.02,9.24,3.64,13.85,5.48-.01-1.89,1.2-4.09,3.33-3.99,3.36.17,3.74,3.1,4.03,5.82.61-.13,4.11.23,4.14.76-1.03,1.37-2.85,1.05-4.33,1.17.17,3.45-1.46,6.57-2.54,9.72.7.01,1.33-.32,2.03-.38,5.17-.45,14.7-1.31,19.43.22,8.65,2.79,8.01,13.68.8,17.73l.19.53c7.74,1.39,8.63,11,4.71,16.59-3.58,5.1-12.39,7.61-18.33,8.23-2.23.23-18.28.85-19.08-.17l2.04-8.49,4.68.2,3.39-25.95c-1.17.31-4.05-.75-4.8-.04-.98.93-2.27,5.21-2.49,6.64-.25,1.61-.73,4.03-.88,5.48-.2,1.91.76,3.74-.57,5.5-1.12,1.47-2.86,1.41-4.24.35-2.77-2.12-.75-4.44-.75-6.71,0-1.09-.73-2.15-.68-3.75.31-9.92,9.36-16.21,10.19-25.88-12.25-3.35-23.26-9.71-34.71-14.92-6.39-2.91-11.12-5.12-18.45-4.16-13.88,1.83-34.66,22.81-40.71,35-4.98,10.05-6.78,23.2-4.03,34.12,6.26-4.6,15.28-4.79,22.51-2.48,2.03.65,3.89,1.43,5.35,3.03,1.84-2.28,2.71-5.5,3.16-8.37.99-6.28.28-9.73-4.93-13.62-1.19-.89-7.04-3.65-7.1-4.59-.09-1.46,3.1-.42,3.84-.18,4,1.27,8.1,4.65,10.41,8.1,4.44-2.63,8.71-5.59,13.17-8.17,1.85-1.07,8.66-5.15,10.32-5.03.4.03.47-.15.43.39l-2.06,2.58c1.89-.2,4.16-1.09,6.01-1.87,2.32-.98,4.48-2.24,6.61-3.55-.53,2.58-3.27,4.83-5.45,6.17-3.58,2.21-7.93,2.88-11.97,3.93-.3.08-.6.19-.88.32-.57.28-1.64.8-2.76,1.43-.4.19-.99.55-1.61.96-.43.28-.84.56-1.19.84-1,.74-1.85,1.49-1.93,1.8.05,2.81.19,5.64.08,8.44-.18,4.81-1.9,12.44-.53,16.74.93,2.91,3.26,4.39,5.84,5.55,0,0,3.77,2.46,9.09,3.58,2.04.52,4.16.96,5.25,1.2,21.89,4.97,46.93,5.69,69.1,1.86,11.96-2.07,17.09-4.1,17.7-17.16ZM73.84,179.18c-.59,1.43-1.3,3.25-3.09,3.34.32-2.56,1.21-4.99,1.64-7.53.88-5.34.68-10.5.09-15.86,4.16,5.27,3.82,14.07,1.36,20.05Z"/>
  <path class="cls-1" d="M137.64,331.77l.41,3.51c2.75-1.26,5.35-2.87,7.92-4.46,2.45-1.51,9.97-6.02,11.16-8.18,1.45-2.63-.34-4-2.13-5.65.83-2.34,4.51-1.73,6.44-1.32,5.35,1.15,6.51,4.65,3.59,9.15-1.96,3.02-6.77,5.26-9.96,6.92-5.1,2.65-10.46,4.76-15.62,7.3-.36.63,1.97,4.57,2.47,5.37,1.03,1.67,2.3,3.15,3.4,4.76.36.22,1.21-.87,1.45-1.16,1.64-1.99,2.98-4.6,4.74-6.69,1.89-2.25,4.18-4.05,6.16-6.18,6.02-6.5,11.97-13.07,17.39-20.07l.06-.61-3.32-6.62c-4.17,1.5-8.25,3.33-12.43,4.79-4,1.4-10.02,4.03-13.6.87-.79,6.44-1.06,15.54-8.12,18.26Z"/>
  <path class="cls-1" d="M120.71,200.09l-1.09,11.3,5.06-.25c.63-.03,2.59-.66,3.32-.92,3.49-1.21,5.87-3.53,4.85-7.51-1.04-4.07-9.09-2.63-12.14-2.62Z"/>
  <path class="cls-1" d="M131.34,187.89c.48-5.51-5.41-4.04-8.92-3.51l-.69,8.26c3.32-.08,9.24-.38,9.62-4.75Z"/>
</svg>