<?xml version="1.0" encoding="UTF-8"?>
<svg id="Calque_1" xmlns="http://www.w3.org/2000/svg" version="1.1" viewBox="0 0 1500 600">
  <!-- Generator: Adobe Illustrator 30.3.0, SVG Export Plug-In . SVG Version: 2.1.3 Build 182)  -->
  <path d="M1334.49,14.97l-14.17,50.62,24.81-2.03-4.5,15.75c-1.57,1.04-15.45,1.2-18.66,1.6-2.38.3-6.4.63-7.57,2.56l-32.5,110.29c-13.2,52.57,18.25,23.48,31.13-.28,4.58-8.45,8.6-18.44,11.36-27.64,11.11,2.28,13.35,10.53,15.7,20.25,20.31,84.27-36.56,162.95-110.98,195.9-99.53,44.08-213.72,44.42-320.63,37l-2.35-1.49,11.61-35.84c8.39.76,16.78.59,25.18.88,43.4,1.49,86.32,1.1,129.56-4.19,106.46-13.01,235.23-56.81,248.85-180.1l-19.73,29.37c-22.49,24.85-57.95,29.28-57.76-13.17-11.34,20.11-39.2,51.28-63.68,31.23-15.29-12.52-9.79-41.72-4.98-58.34,5.35-18.47,25.2-55.54,22.49-72.57-1.65-10.35-18.51-10.73-21.03-5.96-1.77,3.35-4.06,18.54-5.54,23.83-9.32,33.48-36.44,113.59-71.37,126.12-12.58,4.51-24.29,3.63-31.51-8.55l-6.24-16.52c-7.29,19.54-30.34,41.38-52.4,29.57-13.34-7.15-15.83-22.55-17.65-36.03-.17-1.26-.42-5.52-1.89-5.69-16.82,32.1-38.04,63.1-64.3,88.11-11.32,28.52-17.31,62.19-29.45,90.07-7.02,16.13-16.25,16.64-32.44,16.26-61.38-1.42-117.53-4.27-179.28.98-157.32,13.39-323.55,62.86-442.76,169.08l5.34-11.88c3.49-10.23,7.53-21.92,5.29-32.67l-35.44,31.39c5.25-20.46,9.1-41.59-2.82-60.47-11.3-17.9-36.88-24.72-56.96-25.6,8.7-6.43,19.22-11.39,29.02-16.05,186.67-88.76,430.04-104.15,634.13-96.38,19.8.75,43.34,9.32,53.64-13.13,11.87-25.87,22.5-61.96,31.95-89.58,5.1-14.91,7.38-30.44,16.19-44.06-2.65-.65-1.77.84-2.61,1.91-4.14,5.25-7.54,11.3-12.06,16.32-14.75,16.37-42.89,34.17-58.66,8.98l-5.68-17.09c-6.65,11.14-23.33,20.4-36.26,21.98-3.86.47-10.55-.48-13.38.8-.91.41-9.29,10.55-11.64,12.67-25.53,23.03-63.38,27.25-69.93-14.2-7.8,14.36-19.28,34.67-37.5,36.43-22.89,2.22-29.52-16.3-31.39-35.42-24.33,35.82-88.98,68.1-119.22,21.93l-7.92-21.93c-8.46,20.9-31.17,56.19-57.14,53.54-6.59-.67-13.98-5.28-17.84-10.52-22.07-29.99,16.58-87.52,21.15-119.6,3.04-21.37-10.82-22.37-28.11-17.47-.26,16.25-4.39,32.09-8.52,47.68-9.32,35.18-22.68,69.31-32.3,104.42-1.94,3.2-9.37,1.25-12.9,1.58-9.14-25.68-1.07-51.69,8.54-75.81,4.41-11.05,33.58-70.02,31.77-76.35-.34-1.19-2.35-1.45-2.95-2.41-1.19-1.89-5.53-10.34-2.37-11.25,23.01.71,60.43-18.55,76.17,6.62,18.32,29.31-17.48,84.87-20.98,116.37-1.11,10.02-.17,18.35,11.72,12.73,11.6-5.48,31.3-41.4,35.3-53.83,9.49-29.49,11.77-50.03,36.43-72.95,20.85-19.39,69.47-38.4,82.07-.96,15.43,45.85-34.89,91.22-77.09,98.07-2.51.41-8.68-.9-9.43,1.76-.3,1.07,1.68,10.8,2.25,12.74,8.56,29.15,42.51,14.49,59.8,2.64,44.44-30.45,48.49-87.22,64.66-134.35,12.37-.89,24.33-4.63,35.32-10.26l-34.14,115.23c-2.65,9.59-2.73,29.94,12.18,22.29,11.62-5.96,23.97-40.9,28.31-53.72,8.73-25.79,15.25-52.56,23.17-78.61,12.83-.9,24.72-5.09,36.34-10.25-9.91,36.14-23.53,72.13-32.93,108.33-2.35,9.06-9.73,32.78-.47,38.93s19.15-9.7,23.28-16.13c17.36-26.98,31.03-74.48,34.41-106.35.93-8.74.41-18,2.01-26.34,31.43-12.95,30.86,22.43,28.25,43.42-2.98,23.96-12.75,48.98-24,70.18-3.1,5.84-8.95,8.91,3.38,7.43,16.89-2.03,31.02-20.32,36.69-35.22l25.11-84.26c3.04-2.66,7.3-1.55,10.85-2.32,9.57-2.07,18.64-4.89,27.12-9.84-7.8,29.94-18.93,59.23-26.84,89.11-2.11,7.99-9.89,32.4-2.53,37.96,7.54,5.69,18.56-5.79,23.32-11.1,25.89-28.88,30.78-71.35,43.77-106.61,6.87-1.78,13.81-2.94,20.55-5.28,6.23-2.17,11.71-5.53,17.71-8.11l-54.2,177.19c15.19-17.46,29.48-36,41.21-56.02,22.44-38.3,34.92-105.78,78.87-125.71,19.2-8.71,26.72-4.05,44.3,2.27,13.22,4.75,25,2.17,36.73-4.82l-33.94,110.36c-6.92,27.18,5,31.41,21.3,11.16,11.48-14.27,31.17-69.58,36.68-88.9,1.14-4,6.77-24.58,6.44-26.9-.05-.36-3.95-2.42-5.33-5.02-1.41-2.65-2.03-5.8-1.83-8.8,20,.81,45.49-14.61,63.3.03,30.65,25.19-13.2,90.86-14.71,122.95-.91,19.49,14.33,9.14,21.84.56,29.65-33.86,36.7-92.04,52.06-133.28.44-1.95-.05-1.23-1.4-1.4-4.75-.61-9.02,1.34-13.69,1.01l5.17-16.09,14.95-1.26,13.27-42.93c12.86-1.35,24.95-4.98,36.51-10.59ZM1084.02,116.45c-35.75,3.77-68.98,90.25-60.28,120.48,6.85,23.8,26.07-1.49,32.31-11.69,19.36-31.66,25.62-71.1,38.18-105.69.2-3.17-7.79-3.36-10.21-3.1ZM550.32,250.88c28.87-5.33,48.4-38.71,56.19-64.84,2.49-8.35,8.88-36.75-7.63-32.94-17.44,4.03-36.85,50.43-41.94,66.43-3.2,10.07-6.14,20.73-6.62,31.35Z"/>
  <path d="M328.44,175.97c2.15,3.22,7.5,2.58,10.94,3.74,31.75,10.68,39.2,49.01,32.13,78.28-26.01,107.68-210.22,105.46-226.15,7.29-5.73-35.34,16.89-79.06,57.49-61.43-3.5,6.76-8.79,12.26-12.36,19.02-12.75,24.12-13.61,56.88,5.22,78.16.97,1.1,5.49,6.53,6.63,4.55l66.31-225.35c14.71-1.54,28.63-6.01,42.58-10.59l-27.36,95.17c42.4,8.13,72.45-26.44,75.02-66.28,3.35-52.15-53.29-62.88-92.2-45.57-47.4,21.09-66.51,79.47-59.81,128.05-21.84,3.64-33.12-14.47-34.5-33.87-3.83-53.91,41.19-97.61,90.59-110.04,61.35-15.44,152.51,3.76,130.84,86.21-7.47,28.43-34.38,55.19-65.36,52.65ZM280.46,178.09l-1.75,2.34-39.04,139.24c-.14,3.95,14.16,1.36,17.2.93,31.89-4.49,56.05-25.07,68.01-54.55,16.14-39.81,6.12-88.46-44.42-87.96Z"/>
</svg>