<?xml version="1.0" encoding="UTF-8"?>
<svg id="Calque_2" data-name="Calque 2" xmlns="http://www.w3.org/2000/svg" viewBox="0 0 2000 2000">
  <path d="M1184.07,1269.52h0c-13.02,0-24.67,4.84-33.7,13.99-11.4,11.55-17.53,28.92-17.26,48.9.44,33.82,19.11,56.53,46.45,56.53,12.82,0,24.37-4.84,33.4-13.99,11.6-11.75,17.84-29.37,17.57-49.61-.44-33.91-18.67-55.82-46.45-55.82Z"/>
  <path d="M495.52,1270.83c-4.58,0-11.17.37-15.25.64v49.1c4.16.75,9.35,1.44,14.42,1.44,21.9,0,36.06-10.85,36.06-27.65,0-19.45-19.16-23.53-35.23-23.53Z"/>
  <path d="M925.31,1317.83c20.99-.05,35.09-10.33,35.09-25.56,0-5.38-1.75-9.84-5.2-13.28-5.46-5.44-15-8.29-27.75-8.21-4.31.02-12.63.41-17.48.66v44.89c4.41.78,9.91,1.5,15.18,1.5h.15Z"/>
  <path d="M956.58,903.34c-2.12-6.85-4.23-13.7-6.32-20.56-.64-2.1-.33-4.69-2.94-5.75-3.8-1.54-7.24-3.73-10.79-5.74-6.55-3.71-12.94-7.66-18.95-12.16-.02,0-.04-.02-.06-.02-10.07-4.22-20.36-18.71-26.47-28.63-4.15-6.03-7.06-12.66-9.77-19.53-.14.01-.28.03-.44.07,2.85,7.33,5.86,14.4,10.26,20.79,6.11,9.92,16.4,24.4,26.47,28.63.02,0,.04.02.06.02,6.01,4.49,12.4,8.45,18.95,12.16,3.55,2.01,6.99,4.2,10.79,5.74,2.61,1.06,2.3,3.64,2.94,5.75,2.09,6.86,4.2,13.71,6.32,20.55l7.21,25.43c.07-.14.15-.27.2-.41l-7.46-26.35Z"/>
  <path d="M1545.54,1320.52l8-1.44v-50.46l-.27-33.16-18.06-10.44c-8.32-4.81-29.43-12.96-55.79-12.96-13.38,0-26.16,2.1-37.63,6.15v-3.13s-19.99,0-19.99,0c10.65-33.56,15.89-68.99,15.13-105.04l-3.04-456.59h-318.67c7.34-10.58,14.48-22.94,19.16-33.08.06.02.12.03.18.05l59.56-121.72c1.13-2.09,2.13-4.24,2.98-6.45,0,0,8.58-50.24-32.9-81.53-49.17-37.09-70.05-34.97-83.49-14.04,10.88,24.48,23.87,45.29,36.25,61.28-24.56-12.78-42.49-37.74-55.52-65.58-1.98-3.24-3.98-6.59-5.98-10.06-7.66-13.3-22.3-21-37.59-19.81-72.11,5.6-276.65,33.21-392.23,168.16,0,0-47.75,39.73-56.1,97.66-2.83,19.62,9.88,38.06,29.03,42.8l-2.42,364.16h-204.07v97.94l30.04,4.98c.36.06.72.14,1.09.22l.37.08c3.17.66,7.96,1.67,13.83,1.67h2.55v18.81l-18.29,1.28v33.48c0,6.05,1.06,11,1.76,14.28l.06.27c.09.4.18.81.25,1.24l1,5.56h-20.24l-5.06,30.5c-.09.55-.21,1.1-.34,1.69l-.07.32c-.74,3.51-1.85,8.81-1.85,15.15v34.17l21.48,1.43v62.53l-21.62,1.51v34.05c0,6.51,1.17,11.97,1.94,15.58l.11.52c.11.5.21.99.3,1.51l5.4,30.06h72.44l45.51-.13.02.13h276.66l197.46,176.26,19.39,17.29,19.4-17.3,234.58-209.39c.08.4.17.81.25,1.18l.06.3c.12.54.23,1.08.33,1.6l5.4,30.06h123.12l2.05-12.31,3.47,1.7c8.4,4.13,31.21,13.73,61.54,13.73,26.25,0,49.99-8.03,66.84-22.62,17.21-14.89,26.69-36.02,26.69-59.48,0-11.67-1.73-27.97-14.48-44.6ZM1070.01,841.12c2.78-5.28,5.2-10.7,6.61-16.52,1.76-3.14,1.61-6.71,2.21-10.09,1.79-10.13,2.5-20.32,2.21-30.64-.24-8.38-.97-16.7-1.6-25.04,0-2.1-.52-4.11-.92-6.15-.74-3.76,1.51-6.84,2.7-10.14,1.81-5.03,3.63-10.04,5.14-15.18,2.1-7.19,2.53-14.64,3.67-21.96.65-4.16.69-8.42.8-12.67h304.57l1.69,317.62c-122.7-93.6-321.09-110.93-321.09-110.93h0c-4.39-3.19-8.79-6.36-13.18-9.55-1.06-.77-1.4-1.51-1.29-3.59.49-9.3-.14-18.65-2.42-27.69-.59-2.35-.38-3.22.74-4.32,3.99-3.91,7.53-8.17,10.15-13.15ZM1091.67,1392.1l3.72.25v3.73c0,2.96-.59,5.76-1.16,8.47-.23,1.11-.47,2.22-.65,3.34l-.55,3.33h-68.33l-.59-3.28c-.18-1.02-.4-2.04-.62-3.06-.6-2.82-1.23-5.73-1.23-8.8v-3.71l3.71-.26c4.49-.31,11.27-1.17,17.91-2.68l-.04-1.94-7.4-.17s-2.06-75.01-3.11-120.05c-2.36-.41-4.67-.73-7.31-.9l-3.72-.25v-3.73c0-2.96.59-5.76,1.15-8.47.23-1.11.47-2.23.65-3.34l.55-3.33h8.23c-.08-4.41-.14-7.9-.16-10.16l-11.57-5.47v-12.22l67.64,2.57v12.43l-11.39,5.26-.18,7.59h15.75l.59,3.28c.18,1.02.4,2.04.62,3.06.6,2.82,1.23,5.73,1.23,8.81v3.71l-3.71.26c-4.39.31-8.6,1.14-14.98,2.58l-2.78,119.21h-.12s-.03,1.43-.03,1.43c6,1.24,12.48,2.15,17.86,2.51ZM927.98,1392.1l3.72.25v3.73c0,2.97-.59,5.77-1.16,8.48-.23,1.11-.47,2.22-.65,3.33l-.55,3.33h-67.47l-.59-3.28c-.18-1.02-.4-2.03-.62-3.05-.6-2.82-1.23-5.73-1.23-8.81v-3.71l3.7-.26c4.48-.31,11.26-1.17,17.93-2.67l-.02-120.56c-5.99-1.23-12.47-2.15-17.86-2.51l-3.72-.25v-3.73c0-2.97.59-5.77,1.16-8.48.23-1.11.47-2.22.65-3.33l.55-3.33h23.22c4.9,0,11.57-.37,18.63-.76,7.78-.43,15.83-.88,22.56-.89.15,0,.29,0,.44,0,23.69,0,41.08,5.36,51.68,15.93,7.29,7.27,10.98,16.67,10.98,27.95,0,21.19-13.25,38.15-35.68,46.06,8.25,18.55,20.96,37.24,37.01,54.34,5.59,1.09,11.51,1.89,16.42,2.22l2.67.18,1.05,3.15v.65c0,2.96-.58,5.77-1.15,8.47-.23,1.11-.47,2.22-.65,3.33l-.55,3.33h-13.63s-27.48,0-27.48,0l-1.2-1.43c-17.05-20.47-30.62-44.49-39.35-69.64l-.8.02c-5.37.02-10.66-.44-15.01-.98v50.59c5.74,1.14,11.89,1.99,16.99,2.33ZM1008.78,1056.19c-2.96,6.49-5.77,13.05-8.61,19.6-4.02,9.3-8.12,18.57-11.97,27.95-3.53,8.61-6.81,17.33-10.13,26.03-2.8,7.34-5.65,14.67-8.17,22.11-2.44,7.22-4.69,14.5-6.97,21.78-2.16,6.92-4.08,13.91-5.89,20.92-1.4,5.42-2.75,10.9-3.12,16.52-.1,1.47-.97,1.89-1.98,1.88-6.21-.06-12.43.91-18.63-.13-6.77-1.13-13.58-1.97-20.33-3.38-5.65-1.18-11.29-2.51-16.84-4-10.88-2.91-21.56-6.58-32.31-9.97-1.44-.46-2.58-1.01-2.26-3.16,1.25-8.4,1.89-16.88,2.78-25.33.87-8.29,1.66-16.6,2.56-24.88-.32.44-.5.68-.5.68-.76-24.61,2.31-46.58,7.27-65.63.69-6.66,1.35-13.32,2.1-19.97.76-6.73.93-13.54,2.3-20.19.36-1.73.03-3.2-.71-4.72-5.57-11.42-11.09-22.87-16.69-34.28-.59-1.21-.7-2.33-.54-3.64,1.65-13.52,3.22-27.06,4.9-40.58.69-5.56,1.61-11.09,2.48-17.03.76.78,1.27,1.3,1.78,1.83,9.51,9.88,19.81,18.84,30.83,27,6.5,4.81,13.34,9.1,20.24,13.3.4.25.67.46.84.69.34-.93.16-1.37-.89-2.02-6.89-4.2-13.74-8.49-20.24-13.3-11.01-8.16-21.32-17.12-30.83-27-.51-.53-1.03-1.05-1.78-1.83h0c.76.78,1.27,1.3,1.78,1.83,9.51,9.88,19.81,18.84,30.83,27,6.5,4.81,13.34,9.1,20.24,13.3,1.06.64,1.23,1.09.89,2.02.33.45.25.93-.11,1.74-1.67,3.79-3.57,7.48-5.39,11.18-.62,1.26-1.25,2.51-1.88,3.77,2.31-2.78,3.7-4.21,3.7-4.21h27.8c1.29,1.87,2.51,3.74,3.69,5.6-1.42-4.9-2.84-9.8-4.28-14.69-.46-1.58.75-1.69,1.45-1.87,3.04-.82,5.98-1.91,8.86-3.14,17.83-7.56,33.97-18.01,49.82-28.97,11.04-7.64,21.58-15.94,32.38-23.9.02-.03.04-.05.06-.07.11-.23.23-.46.34-.69.23-.22.45-.45.68-.67-.05-.03-.1-.06-.15-.09-.1-.05-.2-.09-.3-.11h0c.1.02.2.06.3.11.05.03.1.06.15.09-.23.22-.45.45-.68.67-.11.23-.23.46-.34.69.02-.02.04-.05.06-.07.09-.08.18-.13.27-.16.09-.03.19-.03.29,0,.1.02.2.06.3.11.05.03.1.06.15.09-.23.22-.45.45-.68.67-4.44,9.54-10.09,18.42-14.96,27.73-4.17,7.96-8.62,15.77-12.95,23.64-.11.2-.18.4-.23.59.12.36.3.71.51,1.07,1.63,2.76,3.2,5.56,4.79,8.35,4.38,7.66,8.76,15.32,13.16,22.96.53.92.86,1.71.67,2.69.19.71.15,1.43-.3,2.35-3.47,6.94-6.76,13.98-10.1,20.99-3.2,6.72-6.46,13.42-9.55,20.19ZM1040.42,1122.02s0,0,0,0c1.41-1.36,2.89-2.67,4.41-3.92,1.05-.86,2.05-1.77,3-2.73,14.16-14.26,18.21-28.81,18.88-39.39.1-4.6-.29-8.56-.7-11.36l-.84-4.44c.49.31.92.92,1.3,1.77,2.45,3.6,7.59,12.52,8.7,25.26.98,6.59.47,12.57-1.36,18.56-3.39,11.13-11.35,22.27-22.82,37.32-24.94,32.73,3.2,72.4,3.2,72.4-13.27-5.59-22.25-12.19-28.03-19.26h0c-28.98-34.73,14.25-74.19,14.25-74.19ZM1065.84,1216.82c-13.69-7.95-24.31-39.14-3.2-60.82,11.77-12.09,16.14-25.18,17.71-34.39l.72-12.19c3,2.41,5.05,6.35,6.26,11.09,2.92,8.08,4.35,20.14-2.96,34.73-1.74,4.29-3.97,7.99-6.63,10.6-1.36,1.34-2.55,2.83-3.48,4.47-2.78,4.9-7.49,15.41-8.54,31.57-.35,8.43.11,14.95.11,14.95ZM1075.66,1217.52s-7.27-21.4,7.06-39.04c14.33-17.64,13.29-25.95,12.02-31.24,0,0,26.11,38.36-19.08,70.28ZM893.38,611.33h0c-.05.63-.05,1.06-.06,1.38.04-.02.08-.04.12-.05-.1,1.19,0,1.7-.18,2.04-2.78,5.02-5.94,9.87-8.3,15.08-1.57,3.47-4.07,3.66-7.14,4.1-11.71,1.67-23.54,2.27-35.2,4.33-1.03.18-2.07.06-3.42-.65,18.21-8.36,35.94-16.5,54.13-24.84.01-.32,0-.75.06-1.38ZM880.46,638.23c.01-.32.01-.75.06-1.38h0c-.05.63-.05,1.06-.06,1.38.04-.02.08-.03.12-.05-.1,1.19,0,1.7-.2,2.04-3.02,5.02-6.45,9.87-9.01,15.08-1.71,3.47-4.42,3.66-7.76,4.1-12.71,1.66-25.57,2.27-38.23,4.33-1.12.18-2.25.06-3.72-.65,19.78-8.35,39.04-16.49,58.79-24.84ZM866.31,669.95c-1.58,3.96-2.83,7.3-4.26,10.6-1.24,2.85-3.99,3.65-8.26,3.48-6.86-.27-13.76.15-20.64.08-9.52-.1-19.06,1.04-28.75-.7,20.27-4.41,40.55-8.82,61.92-13.46ZM854.84,718.34c-2.25-.03-4.55-.45-6.89-1.25-.86-.29-1.53-.84-2.08-1.54-5.74-7.38-12.15-14.07-20.41-18.66-.38-.21-.76-.41-1.13-.59.38.19.75.38,1.13.59,8.26,4.58,14.66,11.28,20.41,18.66.55.7,1.21,1.25,2.08,1.54,2.35.8,4.64,1.23,6.89,1.25ZM804.92,707.13c2.28-11.46,10.91-14.29,20.6-8.91,8.26,4.58,14.66,11.28,20.41,18.66.55.7,1.21,1.25,2.08,1.54,6.26,2.12,12.17,1.64,17.72-2.16,5.36-3.67,9.46-8.49,13.03-13.84,8.17-12.25,13.99-25.64,19.49-39.23,2.67-6.61,5.49-13.2,7.93-19.86,3.36-9.18,7.44-18.05,10.87-27.19,1.09-2.92,3.24-5.33,4-8.49.27-1.13,1.88-1.8,3.14-2.35,9.91-4.29,20.1-7.61,30.66-9.98,8.6-1.93,17.26-3.18,26.01-3.6,5.12-.25,10.3-.04,15.46.19,8.1.36,16.01,1.56,23.91,3.09,8.77,1.7,17.27,4.34,25.59,7.57,2.67,1.04,5.25,2.36,8,3.12,1.68.47,2.12,1.51,2.24,2.69,0-.19,0-.38,0-.57-.04-1.47-.25-2.89-2.29-3.45-2.1-.58-4.12-1.5-6.14-2.36h0c2.03.86,4.04,1.78,6.14,2.36,2.04.56,2.25,1.98,2.29,3.45,0,.19,0,.38,0,.57.03.25.04.5.05.76.22,8.43-.65,16.83-2.59,24.98-1.58,6.6-5.27,12.35-10.89,16.49-.98.72-2.46,1.69-3.74-.03-3.78-5.08-10.66-4.99-15.64-.64-2.99,2.61-4.83,2.22-7.98.39-6.95-4.05-14.68-4.69-22.57-3.33-.11,3.99-2.39,1.08-3.73,1.18-7.04-.53-13.63-3.08-20.43-4.65-3.29-.76-6.6-1.37-9.9-2.1-1.12-.25-2.13,0-3.02.59-7.83,5.23-15.63,10.48-23.97,16.07,3.14.64,5.58-.14,7.95-.32,4.81-.37,9.56-1.29,14.27-2.35,6.1-1.37,11.9-.32,17.64,1.49,4.91,1.54,9.8,3.06,14.37,5.56,3.63,1.99,6.79,4.49,10.56,7.64-4.57-1.16-8.5-.84-12.4-1.26-9.59-1.05-18.38.91-25.75,7.53-2.03,1.82-3.6,3.99-4.98,6.34-.69.91-1.24,1.9-1.6,2.98,0,0,31.37-2.78,48.36-4.78l-10.1,15.24s2.26-.27,5.77-1.44c.3-.06.68-.03.81-.28.44-.16.9-.33,1.37-.51.26-.06.51-.17.75-.3,5.08-2.07,11.7-5.76,17.98-12.29,2.89-2.8,5.52-5.89,7.86-9.29,2.19-3.18,5.12-4.78,8.82-4.24,3.75.55,6.19,3.08,7.44,6.6,5.88,16.5,11.7,33.02,17.57,49.53.6,1.69.96,3.21,1.1,4.58.03-1.7-.35-3.65-1.15-5.91-3.54-9.96-7.06-19.92-10.59-29.88h0c3.53,9.96,7.05,19.92,10.59,29.88.8,2.26,1.18,4.21,1.15,5.91.5,5.06-2.2,8.05-8.63,9.79-5.14,1.39-10.44,1.48-15.71,1.69-3.81.15-7.46.07-10.94,2.34-2.59,1.69-5.45,3.13-8.74,3.11l-5.13-1.2c-1.78-.82-3.39-1.96-5-3.15-.75-.55-1.33-1.85-2.35-1.38-.94.43-.5,1.74-.64,2.66,0,0-1.35,1.82-1.51,4.08.49,3.09,3.81,6.46,15.52,7.09,1.87.1,3.7.18,5.48.25-1.78-.07-3.61-.15-5.48-.25-11.72-.62-15.03-4-15.52-7.09-.24,3.37,2.14,7.7,15.58,8.42,8.54.45,16.26.56,22.54.52.05.28.1.57.17.86,1.17,4.65,1.08,9.53,2.45,14.14.14-.27.17-.56.06-.92-1.51-4.74-1.36-9.76-2.56-14.55-.07-.29-.12-.58-.17-.86h0c.05.28.1.57.17.86,1.2,4.79,1.06,9.81,2.56,14.55.12.36.09.65-.06.92.04.13.07.27.11.4.22.68-.03,1.12-.73,1.61-.37.26-.74.52-1.11.79-2.55,1.84-5.8,2.48-8.83,1.61l-.06-.02c-1.31-.97-2.7-1.49-4.14-1.67h0s-.02,0-.03,0c-2.53-.32-5.24.38-8.05,1.49-.24.1-.48.2-.72.31-9.6,2.38-23.21,6.42-28.66,8.05,4.14.94,8.98,1.6,13.69,2.06,2.67.35,5.55.67,8.55.94,0,.01-.01.03-.02.04.17,0,.35,0,.52,0,1.1.1,2.21.18,3.34.26-1.12-.08-2.24-.17-3.34-.26-.17,0-.35,0-.52,0,0-.01.01-.03.02-.04-3-.27-5.89-.6-8.55-.94-4.71-.46-9.54-1.12-13.69-2.06-1.5.45-2.38.72-2.38.72,4.6,1.28,10.46,2.12,16.13,2.67,2.67.35,5.55.67,8.55.94,0,.01-.01.03-.02.04.17,0,.35,0,.52,0,8.79.76,18.56,1.02,27.02-.17,1.24,0,2.07.04,2.67.26.07.07,1.28,1.28,1.56,3.92.07-3.57-1.53-5.17-1.61-5.25-.45-.16-1.03-.23-1.82-.25.79.02,1.37.09,1.82.25.08.08,1.68,1.68,1.61,5.25.15,1.38.04,3.13-.61,5.33-2.44,3.23-6.13,4.55-9.57,6.25-.94.46-1.91.88-2.86,1.32-6.22,1.77-12.47,3.54-19.15,5.44,2.07.82,4.13,1.45,6.16,1.88-2.03-.43-4.08-1.06-6.16-1.88-.63.18-1.24.35-1.87.53,7.79,3.55,15.16,4.01,22.69,3.14,3.11-.56,6.14-1.44,8.98-2.77,2.21-1.04,3.6-.99,4.36,1.6.24.8.86,1.49,1.3,2.23,1.17,4.18,2.46,8.32,2.89,12.7.01-.33.01-.66-.02-1-.39-4.5-1.72-8.74-2.92-13.03-.44-.74-1.07-1.43-1.3-2.23-.48-1.62-1.2-2.25-2.21-2.23,1.01-.01,1.73.61,2.21,2.23.24.8.86,1.49,1.3,2.23,1.2,4.29,2.53,8.53,2.92,13.03.03.34.03.67.02,1,.01.11.03.22.04.33.12,1.36-.21,2.63-.06,3.94-.5,3.76-1.81,7.26-4.07,10.28-7.47,9.99-18.43,12.55-29.96,13.59-5.32.48-10.72-.07-16.05.37-5.78.48-11.6.24-17.35-.58-5.61-.79-11.21-1.76-16.79-2.84-8.33-1.61-16.47-3.82-24.48-6.5-10.13-3.39-19.93-7.55-29.35-12.68-10.42-5.67-20.07-12.25-28.3-20.82-.48-.5-.81-1.32-1.91-1.24,2.71,6.88,5.62,13.51,9.77,19.53,6.11,9.92,16.4,24.4,26.47,28.63.02,0,.04.02.06.02,6.01,4.49,12.4,8.45,18.95,12.16,3.55,2.01,6.99,4.2,10.79,5.74,2.61,1.06,2.3,3.64,2.94,5.75,2.09,6.86,4.2,13.71,6.32,20.56l7.46,26.35c-.05.14-.14.28-.2.41l.26.92c-.25.65-.65,1.3-1.14,1.97-1.86,2.54-3.43,5.29-5.12,7.95-3.17,4.97-6.34,9.94-9.58,15.02-.63-.81-1.12-1.43-1.6-2.04-.25-.35-.51-.72-.76-1.09-.72-1.53-1.59-2.97-2.7-4.25-.07-.02-.14-.03-.21-.05-.91-1.37-1.84-2.81-2.78-4.26.02-.13.04-.27.07-.41-.4-.64-.8-1.29-1.21-1.93-.1.02-.2.05-.31.08-1.83-2.88-3.64-5.78-5.3-8.47.04-.06.08-.13.13-.19-2.51-4-5.01-8.01-7.52-12.01h0c-12.24-22.44-16.84-27.17-18.52-26.97h0s-5.62-1.23,1.38,22.84c3.98,15.86,11.21,34.07,11.11,33.85-25.39-12.05-49.14-55.17-49.89-56.55-16.28-34.93-20.82-72.31-21.51-110.61-2.96,2.84-6.08,5.16-9.47,6.78-3.71,1.77-7.69.77-11.42-.81-12.87-14.1-23.53-70.71-23.53-70.71.07-4.01-.11-8,.68-11.99ZM1024.24,812.38c-1.4-.05-2.81-.16-4.22-.36,1.41.19,2.82.31,4.22.36ZM920,949.7h0s-.16-.41-.48-1.24c.32.83.49,1.28.48,1.24ZM909.93,919.81c-.37-1.33-.72-2.65-1.05-3.96-.32-1.1-.61-2.14-.88-3.13-.67-2.48-1.19-4.65-1.58-6.55.39,1.9.91,4.07,1.58,6.55.27.99.56,2.04.88,3.13.33,1.31.68,2.63,1.05,3.96ZM848.67,1215.07h-1.74s0-.68,0-.68c.58.23,1.16.45,1.74.68ZM767.46,715.3h0c.49-.54.54-1.07.21-1.42h0c.33.35.29.88-.21,1.42-.56.61-1.13,1.22-1.71,1.82-4.69,1.18-11.29,2.18-20.52,2.41,0,0,25.33,83.54,43.95,109.81.46.74.93,1.48,1.42,2.22.67,1.01,1.9,2.02.98,3.62-5.02,8.65-8.37,18.07-12.62,27.08-.54,1.15-.3,2.76-2.37,2.67-1.64-.07-3.07-1.1-3.8-2.56-1.57-3.15-3.28-6.23-4.93-9.34-7.67-14.45-15.38-28.87-22.94-43.38-1.03-1.97-1.87-2.08-3.7-1.24-12.57,5.8-22.75,14.16-29.6,26.43-3.06,5.48-5.24,11.26-7.31,17.12-.39,1.12-.74,2.33,1.01,3.1,9.87,4.31,19.68,8.75,29.52,13.11,9.08,4.02,18.17,8,27.25,11.99-.05.27-.03.52-.14.63-9.16,8.6-14.61,19.55-19.04,31-4.24,10.96-7.17,22.37-9.84,33.81-2.23,9.54-4.18,19.13-6.59,28.63-1.92,7.59-4.04,15.07-6.88,22.38-2.94,7.58-6.73,14.59-12.53,20.35-1.8,1.79-3.88,3.31-5.88,4.99,2.12.88,3.98.12,5.85-.15,49.42-5.12,54.76-60.25,54.76-60.25,2.17-8.75,3.04-17.82,4.35-26.78,1.74-11.94,3.38-23.89,4.98-35.85.28-2.07.83-2.8,2.89-1.64,1.24.7,2.66,1.3,4.05,1.46,1.44.16,1.87.81,2.15,2.05,1.46,6.56,2.91,13.12,4.5,19.65,1.61,6.64,3.56,13.21,5.02,19.89,1.09,5.01,2.17,10.02,3.58,15.35,11.3-13.33,22.33-26.36,33.42-39.35,1.21-1.41.06-1.83-.7-2.47-6.39-5.39-12.79-10.76-19.18-16.13-4.57-3.84-9.13-7.68-13.79-11.61,14.52.7,25.26-5.83,35.03-14.26,4.62-3.59,8.11-6.89,10.64-9.59.19.07.33.38.35,1.14.02.81.08,1.63.17,2.44.96,7.94.81,15.94,1.66,23.9.61,5.67.95,11.49.41,17.14-.88,9.19-1.79,18.36-2.21,27.6-.36,8.05-1.41,16.08-1.62,24.13-.08,3.26-.76,6.45-.49,9.77.23,2.81-.48,5.26-3.96,6.79-3.04,1.34-6.04,2.78-9.01,4.28-18.48,8.93-62.23,30.8-101.07,55.82h-87.62l1.83-342.52h58.21l35.45,7.91c-1.23,1.77-2.46,3.54-3.66,5.34,13.16,6.42,26.93,10.32,40.26,9.31ZM767.51,716.63l.21-1.42c.33.35.29.88-.21,1.42ZM714.46,1083.62l-3.15-.21v-3.15c0-2.51.5-4.88.98-7.17.2-.94.4-1.88.55-2.82l.47-2.82h97.66v36.91l-2.77.5c-.86.16-1.72.34-2.59.52-2.38.51-4.85,1.04-7.45,1.04h-3.14l-.22-3.14c-.31-4.47-1.07-9.63-2.07-14.27h-37.83v38.17l37.47-.97.88,2.15c1.95,4.77,1.57,10.59-1.07,16.41l-.9,1.98h-36.39v37.87h41.37c1.04-5.06,1.82-10.54,2.12-15.11l.21-3.15h3.15c2.51,0,4.89.5,7.18.98.94.2,1.87.39,2.81.55l2.82.47v19.63s0,18.19,0,18.19h-101.21l-.5-2.77c-.15-.86-.34-1.73-.52-2.59-.51-2.38-1.04-4.84-1.04-7.44v-3.14l3.13-.22c3.8-.27,9.54-1,15.16-2.27v-102c-5.07-1.04-10.55-1.82-15.11-2.12ZM594.24,643.54c-26.43-45.34,59.02-119.21,93.18-141.82-23.44,24.95-103.72,101.51-84.06,136.32,14.51,23.59,67.73,24.01,93.32,25.76-17.31,2.68-35.11,3.82-52.66,2.42-18.17-1.84-38.92-6.18-49.78-22.68ZM550.24,1190.23l3.14-.22c3.8-.27,9.54-.99,15.15-2.27v-102c-5.07-1.05-10.55-1.82-15.11-2.12l-3.15-.21v-3.15c0-2.51.5-4.87.98-7.16.2-.94.4-1.88.55-2.83l.47-2.82h19.64s38.18,0,38.18,0l.5,2.77c.15.86.34,1.73.52,2.59.51,2.38,1.04,4.84,1.04,7.45v3.14l-3.14.22c-3.8.27-9.54.99-15.15,2.27v39.33h66.47v-39.48c-5.07-1.05-10.55-1.82-15.11-2.12l-3.15-.21v-3.15c0-2.51.5-4.88.98-7.17.2-.94.39-1.88.55-2.82l.47-2.82h19.63s38.18,0,38.18,0l.5,2.77c.15.86.34,1.72.52,2.58.51,2.39,1.04,4.85,1.04,7.46v3.14l-3.14.22c-3.8.27-9.54.99-15.15,2.27v102c5.06,1.04,10.54,1.82,15.11,2.12l3.15.21v3.15c0,2.51-.5,4.88-.98,7.17-.2.94-.4,1.88-.55,2.82l-.47,2.82h-19.63s-38.18,0-38.18,0l-.5-2.77c-.16-.86-.34-1.72-.52-2.58-.51-2.38-1.04-4.85-1.04-7.45v-3.14l3.13-.22c3.8-.27,9.54-1,15.16-2.27v-40.89h-66.47v41.03c5.07,1.05,10.55,1.82,15.11,2.12l3.15.21v3.15c0,2.51-.5,4.88-.98,7.17-.2.94-.39,1.88-.55,2.82l-.47,2.82h-57.82l-.5-2.77c-.16-.86-.34-1.72-.53-2.59-.51-2.38-1.04-4.85-1.04-7.45v-3.14ZM437.58,1107.27c-2.51,0-4.88-.5-7.17-.98-.94-.2-1.88-.4-2.82-.55l-2.82-.47v-37.83h121.12v37.8s-2.78.5-2.78.5c-.86.16-1.73.34-2.59.53-2.38.51-4.84,1.04-7.44,1.04h-3.14l-.22-3.14c-.27-3.8-.99-9.54-2.27-15.16h-29.45v98.88c5.08,1.05,10.56,1.82,15.11,2.12l3.15.21v3.15c0,2.51-.5,4.88-.98,7.17-.2.94-.4,1.88-.55,2.82l-.47,2.82h-57.83l-.5-2.77c-.15-.87-.34-1.73-.53-2.59-.51-2.38-1.04-4.84-1.04-7.44v-3.14l3.14-.22c3.8-.27,9.54-.99,15.16-2.27v-98.73h-29.6c-1.04,5.06-1.82,10.54-2.12,15.11l-.21,3.15h-3.15ZM539.89,1331.49c-11.82,8.86-28.29,13.73-46.39,13.73h-3.98v-.08c-2.77-.11-5.53-.32-8.24-.65v45.3c6.22,1.13,13.24,1.91,19.05,2.55,1.77.2,3.44.38,4.96.56l3.52.42v3.54c0,4.36-1.54,8.4-2.99,11.84l-1.02,2.43-27.49.08h-45.13l-.59-3.28c-.18-1.02-.4-2.05-.62-3.07-.6-2.81-1.22-5.72-1.22-8.79v-3.71l3.71-.26c4.49-.31,11.27-1.17,17.91-2.68v-120.57c-5.96-1.22-12.4-2.13-17.76-2.49l-3.72-.25v-3.73c0-2.97.59-5.77,1.16-8.48.23-1.11.47-2.22.65-3.33l.55-3.33h23.2c4.05,0,9.48-.34,15.22-.68,7.14-.43,15.24-.92,22.71-.92,42.75,0,66.29,16.42,66.29,46.23,0,16.22-6.84,29.92-19.78,39.62ZM721.59,1396.07c0,2.96-.58,5.76-1.14,8.46-.23,1.11-.46,2.23-.64,3.34l-.55,3.34h-61.73l-.59-3.28c-.18-1.02-.4-2.04-.62-3.06-.6-2.81-1.22-5.72-1.22-8.8v-3.71l3.7-.26c4.81-.34,10.3-1.11,15.38-2.14l-9.32-23.83h-65.09l-9.78,24.19c4.87.87,9.82,1.5,14.09,1.78l3.72.25v3.73c0,2.96-.59,5.76-1.16,8.47-.23,1.11-.47,2.22-.65,3.34l-.55,3.33h-54.87l-.55-3.34c-.18-1.11-.41-2.22-.64-3.33-.56-2.71-1.14-5.51-1.14-8.47v-3.75l3.75-.22c4.58-.27,7.28-.82,10.35-1.67l49.69-121.99c-5.37-1.02-10.99-1.77-15.72-2.09l-3.72-.25v-3.73c0-2.97.59-5.77,1.16-8.49.23-1.11.47-2.21.65-3.32l.55-3.33h18.72c11.54,0,22.24-.43,31.82-1.27l2.93-.26,58.63,144.59c3.07.87,5.85,1.5,10.79,1.79l3.75.22v3.75ZM851.62,1291.91l-3.28.59c-1.02.18-2.05.4-3.07.62-2.81.6-5.72,1.22-8.79,1.22h-3.71l-.26-3.71c-.32-4.49-1.17-11.27-2.68-17.91h-34.8v116.86c6,1.24,12.48,2.15,17.86,2.51l3.72.25v3.73c0,2.96-.59,5.77-1.15,8.48-.23,1.11-.47,2.22-.65,3.33l-.55,3.33h-68.34l-.59-3.28c-.18-1.02-.4-2.04-.62-3.06-.6-2.82-1.23-5.73-1.23-8.8v-3.71l3.71-.26c4.49-.31,11.27-1.17,17.91-2.68v-116.69h-34.98c-1.23,5.98-2.15,12.46-2.51,17.86l-.25,3.72h-3.73c-2.96,0-5.76-.59-8.47-1.15-1.11-.23-2.22-.47-3.33-.65l-3.33-.55v-44.71h143.14v44.67ZM1016.29,1584.98l-157.83-140.88h261.99l1.81-10.88c14.35,8.21,30.84,12.91,48.57,13.82l-154.53,137.94ZM1177.38,1414.33c-21.33,0-39.71-7.16-53.17-20.7-14.57-14.66-22.2-35.49-22.05-60.24.12-25.37,8.64-48.25,24.01-64.43,15.26-16.08,36.59-24.93,60.06-24.93,21.47,0,39.93,7.15,53.37,20.67,14.41,14.49,21.95,35.13,21.81,59.69-.25,52.12-35.59,89.95-84.03,89.95ZM1409.39,1291.91l-3.28.59c-1.02.18-2.05.4-3.07.62-2.81.6-5.72,1.22-8.79,1.22h-3.71l-.26-3.71c-.32-4.49-1.17-11.27-2.68-17.91h-34.8v116.86c6,1.24,12.48,2.15,17.86,2.51l3.72.25v3.73c0,2.96-.59,5.77-1.15,8.48-.23,1.11-.47,2.22-.65,3.33l-.55,3.33h-68.34l-.59-3.28c-.18-1.02-.4-2.04-.62-3.06-.6-2.82-1.23-5.73-1.23-8.8v-3.71l3.71-.26c4.49-.31,11.27-1.17,17.91-2.68v-116.69h-34.98c-1.23,5.98-2.15,12.46-2.51,17.86l-.25,3.72h-3.73c-2.96,0-5.76-.59-8.47-1.15-1.11-.23-2.22-.47-3.33-.65l-3.33-.55v-44.71h143.14v44.67ZM1466.64,1414.33c-24.16,0-42.23-7.96-47.2-10.39l-2.23-1.09v-37.04l3.28-.59c1.02-.18,2.04-.4,3.05-.62,2.82-.6,5.73-1.23,8.81-1.23h3.71l.26,3.7c.35,4.92,1.14,10.56,2.22,15.77,8.73,3.84,17.38,5.79,25.74,5.79,18.53,0,30.99-8.5,30.99-21.14,0-8.65-5.13-14.43-20.34-22.91l-24.22-13.55c-19.78-11.04-29.39-24.52-29.39-41.2,0-27.27,23.41-45.6,58.26-45.6,20.13,0,35.65,6.36,39.5,8.59l1.97,1.14.12,14.38v23.2l-3.28.59c-1.02.18-2.03.4-3.05.62-2.82.6-5.73,1.23-8.81,1.23h-3.71l-.26-3.7c-.39-5.52-1.35-11.93-2.61-17.58-5.88-1.88-11.96-2.84-18.08-2.84-17.21,0-28.77,7.35-28.77,18.29,0,7.26,5.05,12.72,18.02,19.48l22.83,11.9c24.28,12.65,34.19,25.77,34.19,45.25,0,29.64-24.51,49.56-61,49.56Z"/>
  <path d="M1028.07,1009.98c-4.4-7.65-8.78-15.31-13.16-22.96-1.59-2.78-3.16-5.59-4.79-8.35-.21-.36-.39-.71-.51-1.07-.21.84.09,1.6.56,2.4,1.63,2.76,3.2,5.56,4.79,8.35,4.38,7.66,8.76,15.32,13.16,22.96.27.47.49.91.61,1.36.19-.98-.14-1.77-.67-2.69Z"/>
  <polygon points="610.1 1340.55 654.85 1340.55 632.85 1284.3 610.1 1340.55"/>
  <path d="M947.3,1026.72c2.79.88,5.56,1.81,8.42,2.76-2.86-.96-5.63-1.89-8.42-2.76-3.27-1.03-6.58-1.92-9.86-2.93-.39-.12-.77-.21-1.15-.27.38.06.76.15,1.15.27,3.27,1.01,6.59,1.9,9.86,2.93Z"/>
  <path d="M871.58,653.44h0c2.53-5,5.82-9.69,8.74-14.54.1-.16.12-.37.14-.66h0c-.01.29-.04.5-.14.66-2.92,4.85-6.2,9.54-8.74,14.54Z"/>
  <path d="M884.9,628.45c-1.57,3.47-4.07,3.66-7.14,4.1-11.71,1.67-23.54,2.27-35.2,4.33-.26.05-.51.07-.78.07.26,0,.52-.03.78-.07,11.66-2.06,23.49-2.66,35.2-4.33,3.07-.44,5.57-.63,7.14-4.1,2.36-5.21,5.52-10.06,8.3-15.08.09-.16.11-.37.12-.66h0c-.01.29-.03.5-.12.66-2.78,5.02-5.94,9.87-8.3,15.08Z"/>
  <path d="M1026.75,771.77s-.02,0-.03,0h0s.02,0,.03,0Z"/>
  <path d="M1050.77,736.99c-5.14,1.39-10.44,1.48-15.7,1.69-3.81.15-7.46.07-10.94,2.34-.97.63-1.98,1.23-3.04,1.73,1.06-.5,2.07-1.1,3.04-1.73,3.48-2.26,7.13-2.18,10.94-2.34,5.26-.21,10.57-.3,15.7-1.69,5.84-1.58,8.61-4.2,8.68-8.46,0,0,0,0,0,0-.08,4.26-2.84,6.88-8.68,8.46Z"/>
  <path d="M1053.45,632.79c-1.58,6.6-5.27,12.35-10.89,16.49-.35.25-.75.54-1.19.73.44-.19.85-.47,1.19-.73,5.62-4.14,9.32-9.88,10.89-16.49,1.9-7.96,2.77-16.17,2.6-24.41,0,0,0,0,0,0,.17,8.24-.7,16.45-2.6,24.41Z"/>
  <path d="M1040.88,771.08c-.37.26-.74.52-1.11.79-.48.34-.98.65-1.5.91.52-.26,1.02-.56,1.5-.91.37-.26.74-.53,1.11-.79.33-.23.55-.45.67-.69h0c-.13.24-.35.46-.67.69Z"/>
  <path d="M1002.27,741.04c.14-.91-.3-2.23.64-2.66.13-.06.25-.09.36-.1-.12,0-.24.04-.36.1-.94.43-.5,1.74-.64,2.66,0,0-1.91,2.58-1.46,5.41h0c-.45-2.83,1.46-5.41,1.46-5.41Z"/>
  <path d="M1021.09,742.75c-.7.33-1.43.62-2.18.85.75-.23,1.47-.52,2.18-.85Z"/>
  <path d="M1005.43,854.1c-2.01,0-4.02.02-6.02.18-1.45.12-2.89.19-4.34.23,1.45-.03,2.9-.11,4.34-.23,2-.17,4.01-.19,6.02-.18Z"/>
  <path d="M955.55,640.7c.25-.17.51-.31.78-.42-.27.11-.53.25-.78.42-6.25,4.17-12.5,8.37-19,12.74h0c6.5-4.37,12.75-8.57,19-12.74Z"/>
  <rect x="990.61" y="692.53" width="0" height="2.51"/>
  <path d="M841.62,787.97c-.82.49-1.65.94-2.49,1.34-1.39.66-2.82.94-4.26.94,1.44,0,2.87-.27,4.26-.94.85-.4,1.68-.85,2.49-1.34Z"/>
  <path d="M992.63,645.67c.62-.11,1.23-.2,1.85-.28-.61.08-1.23.17-1.85.28-.04,1.34-.32,1.9-.72,2.06.41-.16.69-.72.72-2.06Z"/>
  <path d="M1026.14,646.63c-1.03.51-2.04,1.18-2.97,1.99-.28.24-.55.46-.81.66.26-.19.53-.41.81-.66.93-.82,1.93-1.48,2.97-1.99Z"/>
  <path d="M1017.95,773.58c.24-.11.48-.21.72-.31,2.46-.97,4.84-1.63,7.09-1.56-2.25-.06-4.63.59-7.09,1.56-.24.1-.48.2-.72.31-12.25,3.04-31.04,8.77-31.04,8.77.78.22,1.6.42,2.44.61h0c-.84-.19-1.66-.39-2.44-.61,0,0,18.79-5.73,31.04-8.77Z"/>
  <path d="M881.28,809.62c-.15,0-.32.03-.5.08.16.42.33.84.5,1.26h0c-.17-.42-.33-.84-.5-1.26.18-.05.35-.07.5-.08Z"/>
  <path d="M1049.48,830.05c-.5,3.76-1.81,7.26-4.07,10.28-7.47,9.99-18.43,12.55-29.96,13.59-1,.09-2,.14-3,.17,1-.03,2-.08,3-.17,11.52-1.04,22.48-3.6,29.96-13.59,2.26-3.02,3.57-6.51,4.07-10.28-.11-.98.04-1.95.08-2.94,0,0,0,0,0,0-.04,1-.19,1.96-.08,2.94Z"/>
  <path d="M962.9,931.66c-1.86,2.54-3.43,5.29-5.12,7.95-3.17,4.97-6.34,9.94-9.58,15.02h0c3.24-5.08,6.41-10.05,9.58-15.02,1.7-2.66,3.27-5.41,5.12-7.95.39-.53.7-1.05.94-1.56h0c-.25.52-.55,1.03-.94,1.56Z"/>
  <path d="M1033.16,801.6c-.94.46-1.91.88-2.86,1.31-6.81,1.93-13.61,3.86-21.03,5.97.65.29,1.29.54,1.93.8h0c-.64-.25-1.28-.5-1.93-.8,7.41-2.11,14.22-4.04,21.03-5.97.95-.44,1.92-.85,2.86-1.31,3.44-1.7,7.13-3.02,9.57-6.25.46-1.55.65-2.87.67-4.01,0,0,0,0,0,0-.02,1.13-.21,2.46-.67,4.01-2.44,3.23-6.13,4.55-9.57,6.25Z"/>
  <path d="M915.7,991.18c-1.21,2.47-2.44,4.93-3.68,7.39,0,0,0,0,0,0,1.24-2.46,2.47-4.92,3.68-7.39,1.81-3.7,3.71-7.39,5.39-11.18.06-.15.12-.28.17-.41,0,0,0,0,0,0-.05.13-.1.26-.17.41-1.67,3.79-3.57,7.48-5.39,11.18Z"/>
  <path d="M1028.38,1013.69c-3.47,6.94-6.76,13.98-10.1,20.99-3.2,6.72-6.46,13.42-9.55,20.19-2.96,6.49-5.77,13.05-8.61,19.6-4.02,9.3-8.12,18.57-11.97,27.95-3.53,8.61-6.81,17.33-10.13,26.03-2.8,7.34-5.65,14.67-8.17,22.11-2.44,7.22-4.69,14.5-6.97,21.78-2.16,6.92-4.08,13.91-5.89,20.92-1.4,5.42-2.75,10.9-3.12,16.52-.1,1.47-.97,1.89-1.98,1.88-.97-.01-1.94,0-2.91.03.97-.03,1.94-.04,2.91-.03,1.01.01,1.88-.4,1.98-1.88.37-5.62,1.72-11.11,3.12-16.52,1.81-7.01,3.72-13.99,5.89-20.92,2.27-7.28,4.53-14.56,6.97-21.78,2.52-7.44,5.37-14.76,8.17-22.11,3.31-8.7,6.59-17.42,10.13-26.03,3.84-9.38,7.94-18.65,11.97-27.95,2.83-6.55,5.64-13.11,8.61-19.6,3.09-6.77,6.35-13.47,9.55-20.19,3.34-7.01,6.63-14.04,10.1-20.99.18-.37.3-.7.36-1.02,0,0,0,0,0,0-.06.32-.18.65-.36,1.02Z"/>
  <path d="M1009.78,975.69c-.37.68-.37,1.3-.17,1.92h0c-.2-.61-.2-1.24.17-1.92,4.33-7.87,8.78-15.68,12.95-23.64,4.75-9.08,10.24-17.76,14.63-27.04,0,0,0,0,0,0-4.39,9.27-9.88,17.96-14.63,27.04-4.17,7.96-8.62,15.77-12.95,23.64Z"/>
  <path d="M942.29,1153.01s60.31-70.95,6.77-155.35c2.21,7.64,4.41,15.27,6.6,22.92,1.02,3.57,1.93,7.17,3.01,11.2-3.9-1.29-7.59-2.56-11.31-3.73-3.27-1.03-6.58-1.92-9.86-2.93-3.1-.96-5.91.16-8.8,1.01-7.47,2.21-14.96,4.34-22.44,6.5-3.94,1.14-7.89,2.28-12.45,3.6,2.34-4.64,4.5-8.72,6.49-12.87,4.37-9.11,9.06-18.05,13.56-27.08-.57.68-1.19,1.44-1.86,2.29-3.94,7.81-7.98,15.58-11.76,23.47-1.99,4.16-4.15,8.24-6.49,12.87h0c2.34-4.64,4.5-8.72,6.49-12.87,3.79-7.89,7.82-15.66,11.76-23.47-9.28,11.67-27.93,38.74-38.3,78.61-.23,2.17-.44,4.35-.68,6.52-1.1,9.99-2.12,20-3.13,29.99-.89,8.74-1.75,17.48-2.73,26.21-.08.74-.15,1.48-.23,2.22,5.58-7.63,57.08-78.76,63.68-114.21-1.47,18.59-3.62,70.4,11.66,125.1Z"/>
  <path d="M1046.95,1270.78l5.66,1.24-2.9,75.79-2.76-77.03Z"/>
</svg>