<?xml version="1.0" encoding="UTF-8"?>
<svg id="Calque_1" xmlns="http://www.w3.org/2000/svg" version="1.1" viewBox="0 0 1200 1200">
  <!-- Generator: Adobe Illustrator 30.3.0, SVG Export Plug-In . SVG Version: 2.1.3 Build 182)  -->
  <path d="M778.11,1199.38l-360.31,1c-90.95,0-182.4-73.46-182.4-181.4l-1-844.05C249.39,63,332.34.03,433.29,1.03l367.3,3c92.95,13.99,155.42,97.95,155.42,200.39v814.06c-9.49,98.45-78.46,180.9-177.4,181.4h0l-.49-.5ZM781.6,1101.94c44.48,0,79.96-49.97,82.95-90.45V192.43c0-52.47-47.47-90.45-91.95-90.45h-353.31c-56.97,0-94.45,42.48-94.45,103.94v798.07c0,44.98,33.98,96.95,78.96,96.95l377.8,1h0Z"/>
  <path d="M548.73,173.94h91.45c13.49,0,24.49,10.99,24.49,24.49h0c0,13.49-10.99,24.49-24.49,24.49h-91.45c-13.49,0-24.49-10.99-24.49-24.49h0c0-13.49,10.99-24.49,24.49-24.49Z"/>
</svg>