<?xml version="1.0" encoding="UTF-8"?>
<svg id="Calque_1" xmlns="http://www.w3.org/2000/svg" version="1.1" viewBox="0 0 1200 1200">
  <!-- Generator: Adobe Illustrator 30.3.0, SVG Export Plug-In . SVG Version: 2.1.3 Build 182)  -->
  <path d="M1077.28,386.24c54.46,306.79-201.86,639.05-474.17,811.93C329.31,1034.28,56.5,677.53,129.45,364.25,181.91,139.41,391.27-7.49,614.61-.99c218.85,6.5,422.2,159.89,462.68,387.23h0ZM602.12,1079.75c224.84-169.38,412.71-412.71,379.23-685.02-47.47-183.87-210.85-303.79-394.72-297.29-176.38,6.5-328.77,128.41-368.74,310.28-23.48,272.81,166.38,515.14,384.23,672.03h0Z"/>
  <path d="M867.93,480.17c0,145.9-118.42,264.31-264.31,264.31s-264.31-118.42-264.31-264.31,118.42-264.31,264.31-264.31,264.31,118.42,264.31,264.31ZM769.5,480.17c0-91.44-74.45-165.88-165.88-165.88s-165.88,74.45-165.88,165.88,74.45,165.88,165.88,165.88,165.88-74.45,165.88-165.88Z"/>
</svg>