<?xml version="1.0" encoding="UTF-8"?>
<svg id="Calque_1" xmlns="http://www.w3.org/2000/svg" version="1.1" viewBox="0 0 1200 1200">
  <!-- Generator: Adobe Illustrator 30.3.0, SVG Export Plug-In . SVG Version: 2.1.3 Build 182)  -->
  <path d="M925.71,640.85c-4.51,49.06,19.52,91.61,48.56,109.13,30.54,18.52,98.12,4.51,109.63-38.05,61.57-235.78-66.58-470.05-275.83-568.17-217.26-102.12-472.56-29.54-610.72,155.18-144.67,193.73-126.65,460.54,27.53,631.74,166.7,185.22,432.01,225.27,646.76,89.11,20.52-13.02,57.57-8.51,72.59,7.01,88.61,92.61-436.51,340.4-776.41-11.51C-32.42,808.05-58.96,482.67,113.25,246.39,285.45,10.11,589.81-71.48,858.12,57.67c246.29,118.64,398.97,405.48,319.38,686.31-16.02,56.57-83.1,102.12-131.15,111.13-63.58,12.01-124.15-16.02-180.21-63.07-107.63,135.16-280.83,172.7-426,93.11-139.17-76.09-205.24-250.29-146.67-402.47,58.07-150.68,215.75-238.78,377.44-202.24,154.68,35.04,271.32,178.21,255.3,360.42h-.49ZM827.59,598.8c0-126.15-102.12-228.27-228.27-228.27s-228.27,102.12-228.27,228.27,102.12,228.27,228.27,228.27,228.27-102.12,228.27-228.27Z"/>
</svg>