<?xml version="1.0" encoding="UTF-8"?>
<svg id="Calque_1" xmlns="http://www.w3.org/2000/svg" version="1.1" viewBox="0 0 356.16 169.41">
  <!-- Generator: Adobe Illustrator 30.3.0, SVG Export Plug-In . SVG Version: 2.1.3 Build 182)  -->
  <defs>
    <style>
      .st0 {
        fill: #342d2f;
      }
    </style>
  </defs>
  <path class="st0" d="M350.01,44.77c-.82,2.73-2.01,5.69-3.37,8.2-3.82,7.05-13.15,15.68-9.23.08l9.64-32.72c.35-.57,1.54-.67,2.25-.76.95-.12,5.07-.17,5.54-.47l1.33-4.67-7.36.6L353,0h0c-3.43,1.65-7.02,2.73-10.83,3.13l-3.94,12.73-4.43.37-1.53,4.77c1.39.1,2.65-.48,4.06-.3.4.05.55-.16.42.42-4.56,12.23-6.65,29.49-15.44,39.54-2.23,2.55-6.75,5.62-6.48-.17.45-9.52,13.46-29,4.36-36.47-5.28-4.34-12.84.23-18.78,0-.06.89.12,1.82.54,2.61.41.77,1.57,1.38,1.58,1.49.1.69-1.57,6.79-1.91,7.98-1.63,5.73-7.48,22.14-10.88,26.37-4.84,6.01-8.37,4.75-6.32-3.31l10.07-32.74c-3.48,2.07-6.97,2.84-10.9,1.43-5.21-1.87-7.45-3.26-13.14-.67-13.04,5.91-16.74,25.93-23.4,37.29-3.48,5.94-7.72,11.44-12.22,16.62l16.08-52.56c-1.78.77-3.41,1.76-5.25,2.41-2,.69-4.06,1.04-6.1,1.57-3.85,10.46-5.3,23.06-12.98,31.62-1.41,1.58-4.68,4.98-6.92,3.29-2.18-1.65.12-8.89.75-11.26,2.35-8.86,5.65-17.55,7.96-26.43-2.52,1.47-5.21,2.3-8.04,2.92-1.05.23-2.32-.1-3.22.69l-7.45,24.99c-1.68,4.42-5.87,9.85-10.88,10.45-3.66.44-1.92-.47-1-2.2,3.34-6.29,6.24-13.71,7.12-20.82.77-6.23.94-16.72-8.38-12.88-.47,2.47-.32,5.22-.6,7.81-1,9.45-5.06,23.54-10.21,31.55-1.23,1.91-4.16,6.61-6.91,4.78-2.75-1.82-.56-8.86.14-11.55,2.79-10.74,6.83-21.41,9.77-32.13-3.45,1.53-6.97,2.77-10.78,3.04-2.35,7.73-4.28,15.67-6.87,23.32-1.29,3.8-4.95,14.17-8.4,15.94-4.42,2.27-4.4-3.77-3.61-6.61l10.13-34.18c-3.26,1.67-6.81,2.78-10.48,3.04-4.8,13.98-6,30.82-19.18,39.85-5.13,3.52-15.2,7.86-17.74-.78-.17-.58-.76-3.46-.67-3.78.22-.79,2.05-.4,2.8-.52,12.52-2.03,27.44-15.49,22.87-29.09-3.74-11.11-18.16-5.47-24.35.28-7.32,6.8-7.99,12.89-10.81,21.64-1.19,3.69-7.03,14.34-10.47,15.97-3.53,1.67-3.81-.8-3.48-3.78,1.04-9.34,11.66-25.83,6.22-34.52-4.67-7.47-15.77-1.75-22.59-1.96-.94.27.35,2.78.7,3.34.18.28.77.36.88.71.54,1.88-8.12,19.37-9.42,22.65-2.85,7.15-5.24,14.87-2.53,22.49,1.05-.1,3.25.48,3.83-.47,2.85-10.41,6.82-20.54,9.58-30.97,1.23-4.62,2.45-9.32,2.53-14.14,5.13-1.45,9.24-1.16,8.34,5.18-1.36,9.52-12.82,26.58-6.27,35.48,1.14,1.55,3.34,2.92,5.29,3.12,7.7.79,14.44-9.68,16.95-15.88l2.35,6.51c8.97,13.7,28.15,4.12,35.37-6.51.55,5.67,2.52,11.17,9.31,10.51,5.4-.52,8.81-6.55,11.12-10.81,1.94,12.3,13.17,11.04,20.74,4.21.7-.63,3.18-3.64,3.45-3.76.84-.38,2.82-.1,3.97-.24,3.84-.47,8.78-3.22,10.76-6.52l1.68,5.07c4.68,7.47,13.03,2.19,17.4-2.66,1.34-1.49,2.35-3.28,3.58-4.84.25-.32,0-.76.77-.57-2.61,4.04-3.29,8.65-4.8,13.07-2.8,8.19-5.96,18.9-9.48,26.57-3.06,6.66-10.04,4.12-15.91,3.89-60.54-2.3-132.73,2.26-188.11,28.59-2.91,1.38-6.03,2.85-8.61,4.76,5.96.26,13.54,2.28,16.9,7.59,3.54,5.6,2.39,11.87.84,17.94l10.51-9.31c.66,3.19-.53,6.66-1.57,9.69l-1.58,3.52c35.36-31.51,84.67-46.18,131.34-50.16,18.32-1.56,34.97-.71,53.18-.29,4.8.11,7.54-.04,9.62-4.82,3.6-8.27,5.38-18.26,8.74-26.72,7.79-7.42,14.08-16.61,19.07-26.14.44.05.51,1.31.56,1.69.54,4,1.28,8.57,5.24,10.69,6.54,3.5,13.38-2.98,15.54-8.77l1.85,4.9c2.14,3.61,5.62,3.87,9.35,2.54,10.36-3.72,18.41-27.48,21.17-37.41.44-1.57,1.12-6.08,1.64-7.07.75-1.41,5.75-1.3,6.24,1.77.8,5.05-5.08,16.05-6.67,21.53-1.43,4.93-3.06,13.59,1.48,17.31,7.26,5.95,15.53-3.3,18.89-9.26-.06,12.59,10.46,11.28,17.13,3.91l5.85-8.71c-4.04,36.57-42.24,49.57-73.82,53.42-12.83,1.57-25.56,1.68-38.43,1.24-2.49-.09-4.98-.04-7.47-.26l-3.44,10.63.7.44c31.71,2.2,65.59,2.1,95.11-10.98,22.08-9.77,38.95-33.11,32.92-58.11-.7-2.88-1.36-5.33-4.66-6.01h.01ZM122.35,60.69c1.51-4.75,7.27-18.51,12.44-19.71,4.9-1.13,3,7.29,2.26,9.77-2.31,7.75-8.1,17.65-16.67,19.23.14-3.15,1.01-6.31,1.96-9.3h.01ZM270.41,62.39c-1.85,3.03-7.55,10.53-9.58,3.47-2.58-8.97,7.28-34.62,17.88-35.74h0c.72-.08,3.09-.02,3.03.92-3.73,10.26-5.58,21.96-11.33,31.35h0Z"/>
  <path class="st0" d="M67.35,72.1c2.1-8.68-.11-20.05-9.53-23.22-1.02-.34-2.61-.15-3.25-1.11h0c9.19.75,17.17-7.19,19.39-15.62C80.39,7.69,53.35,2,35.15,6.58c-14.65,3.69-28.01,16.65-26.87,32.64.41,5.75,3.76,11.13,10.23,10.05-1.99-14.41,3.68-31.73,17.74-37.98,11.54-5.13,28.34-1.95,27.35,13.52-.76,11.82-9.68,22.07-22.25,19.66l8.12-28.23c-4.14,1.36-8.27,2.68-12.63,3.14l-19.67,66.85c-.34.59-1.68-1.02-1.97-1.35-5.59-6.31-5.33-16.03-1.55-23.19,1.06-2.01,2.63-3.64,3.67-5.64C5.27,50.81-1.44,63.78.26,74.26c4.73,29.12,59.37,29.78,67.08-2.16h0ZM39.82,49.09l.52-.69c14.99-.15,17.96,14.28,13.18,26.09-3.55,8.74-10.71,14.85-20.17,16.18-.9.13-5.14.9-5.1-.28l11.58-41.3h0Z"/>
</svg>