<?xml version="1.0" encoding="UTF-8"?>
<svg id="Calque_1" xmlns="http://www.w3.org/2000/svg" version="1.1" viewBox="0 0 59.84 99.56">
  <!-- Generator: Adobe Illustrator 30.3.0, SVG Export Plug-In . SVG Version: 2.1.3 Build 182)  -->
  <defs>
    <style>
      .st0 {
        fill: #342d2f;
      }
    </style>
  </defs>
  <path class="st0" d="M58.99,36.99c.56-2.32.85-4.7.85-7.07C59.84,13.42,46.41,0,29.92,0S0,13.42,0,29.92c0,2.38.29,4.76.85,7.07.8,4.85,1.9,8.77,3.26,11.64,2.94,6.18,15.31,26.56,20.99,35.85-7.68.98-11.24,4.28-11.24,7.39,0,3.7,5.02,7.69,16.05,7.69s16.05-3.99,16.05-7.69c0-3.11-3.56-6.41-11.24-7.39,5.68-9.29,18.05-29.67,20.99-35.85,1.37-2.87,2.47-6.79,3.27-11.64h.01ZM41.35,91.87c-.31.87-4.18,3.07-11.43,3.07s-11.21-2.25-11.44-3.04c.21-.77,3.36-2.65,9.32-3.03.07.11.12.2.15.24.42.68,1.17,1.1,1.97,1.1s1.55-.42,1.97-1.1c.03-.05.08-.13.15-.24,5.88.37,9.03,2.21,9.31,3ZM8.28,46.64c-1.17-2.46-2.17-6.09-2.89-10.49,0-.06-.02-.12-.04-.18-.49-1.99-.74-4.02-.74-6.06.01-13.94,11.36-25.29,25.31-25.29s25.3,11.35,25.3,25.3c0,2.04-.25,4.07-.74,6.06,0,.06-.03.12-.04.18-.72,4.4-1.72,8.03-2.89,10.49-2.97,6.23-16.51,28.48-21.63,36.84-5.12-8.36-18.66-30.61-21.63-36.84h-.01Z"/>
  <path class="st0" d="M29.92,13c-8.85,0-16.05,7.2-16.05,16.06s7.2,16.06,16.05,16.06,16.05-7.2,16.05-16.06-7.2-16.06-16.05-16.06ZM18.48,29.06c0-6.31,5.13-11.43,11.43-11.43s11.43,5.13,11.43,11.43-5.13,11.43-11.43,11.43-11.43-5.13-11.43-11.43Z"/>
</svg>