<?xml version="1.0" encoding="UTF-8"?>
<svg id="Calque_1" xmlns="http://www.w3.org/2000/svg" version="1.1" viewBox="0 0 52.83 98.6">
  <!-- Generator: Adobe Illustrator 30.3.0, SVG Export Plug-In . SVG Version: 2.1.3 Build 182)  -->
  <defs>
    <style>
      .st0 {
        fill: #342d2f;
      }
    </style>
  </defs>
  <path class="st0" d="M.8,91.45h.36c2.36,4.91,14.59,7.16,25.04,7.16s22.68-2.24,25.04-7.16h.4v-33.19c.79-.88,1.18-1.82,1.18-2.8,0-2.21-2.01-4.02-5.2-5.42V3.56c0-1.96-1.6-3.56-3.56-3.56h-13.98c-1.96,0-3.56,1.6-3.56,3.56v43.04h-.11c-1.15,0-2.3.03-3.45.08l-2.49-22.15c-.06-.52-.36-.99-.79-1.2l-5.55-12.23c-.28-.61-.78-.96-1.3-.9s-.93.51-1.07,1.17l-2.7,13.14c-.09.07-.17.17-.26.3l-.03.05c-.18.28-.26.64-.22,1.03l2.5,22.31C4.63,49.66-.02,52.12-.02,55.48c0,.78.26,1.55.77,2.27v32.39l.03,1.33.02-.02ZM47.63,52.93c1.81.95,2.54,1.87,2.54,2.53s-.72,1.58-2.54,2.53v-5.07h0ZM28.57,3.56c0-.84.68-1.52,1.51-1.52h13.98c.84,0,1.52.68,1.52,1.52v10.47h-5.64c-.26,0-.49.1-.65.28-.14.16-.21.37-.21.6,0,.44.3.88.86.88h5.64v3.6h-5.64c-.26,0-.49.1-.65.28-.14.16-.21.37-.21.6,0,.44.3.88.86.88h5.64v3.6h-5.64c-.26,0-.49.1-.65.28-.14.16-.21.37-.21.6,0,.44.3.88.86.88h5.64v3.6h-9.71c-.26,0-.49.1-.65.28-.14.16-.21.37-.21.6,0,.44.29.88.86.88h9.71v3.6h-5.64c-.26,0-.49.1-.65.28-.14.16-.21.37-.21.6,0,.44.3.88.86.88h5.64v3.6h-5.64c-.26,0-.49.1-.65.28-.14.16-.21.37-.21.6,0,.44.3.88.86.88h5.64v3.6h-5.64c-.26,0-.49.1-.65.28-.14.16-.21.37-.21.6,0,.44.3.88.86.88h5.64v3.6h-9.71c-.26,0-.49.1-.65.28-.14.16-.21.37-.21.6,0,.44.29.88.86.88h9.71v3.6h-5.64c-.26,0-.49.1-.65.28-.14.16-.21.37-.21.6,0,.44.3.89.86.89h5.64v.21c-.49.14-.97.29-1.46.44-1.29.4-2.63.81-4.02,1h0c-.39.05-.76.15-1.08.3-3.37.53-6.79.82-10.45.88,0,0,0-57.95,0-57.95ZM26.41,49.27h.11v12.38h-.11c-.6,0-1.18,0-1.77-.03l-1.38-12.29c1.04-.04,2.09-.07,3.15-.07h0ZM26.41,64.32c9.32,0,17.92-1.55,22.56-4.06v29.66c-.23,1.38-2.71,2.89-6.66,4.04-4.41,1.28-10.13,1.99-16.11,1.99s-11.7-.71-16.11-1.99c-3.95-1.15-6.44-2.66-6.65-4.04v-29.89c4.48,2.62,13.44,4.3,22.97,4.3h0ZM12.76,19.04l2.11-.24,1.89,4.16-4.92.55.92-4.47ZM18.18,26.27l3.95,35.18c-1.43-.07-2.99-.18-4.87-.35-.27-.07-.54-.1-.81-.1h-.18l-.56-.05c-.25-.02-.49-.04-.72-.06l-3.8-33.83,6.98-.78h0ZM8.94,51.45c.76-.23,1.58-.44,2.43-.64l1.07,9.54c-1.24-.26-2.42-.55-3.5-.88-4.62-1.41-6.27-3-6.27-4.01s1.65-2.6,6.27-4.01Z"/>
  <path class="st0" d="M37.07,11.03c1.62,0,2.94-1.32,2.94-2.94s-1.32-2.94-2.94-2.94-2.94,1.32-2.94,2.94c0,1.21.74,2.26,1.79,2.7.35.15.74.23,1.14.23h0ZM37.07,7.21c.49,0,.89.4.89.89s-.4.89-.89.89-.89-.4-.89-.89.4-.89.89-.89Z"/>
</svg>