<?xml version="1.0" encoding="UTF-8"?>
<svg id="Calque_1" xmlns="http://www.w3.org/2000/svg" version="1.1" viewBox="0 0 99.95 58.63">
  <!-- Generator: Adobe Illustrator 30.3.0, SVG Export Plug-In . SVG Version: 2.1.3 Build 182)  -->
  <defs>
    <style>
      .st0 {
        fill: #342d2f;
      }
    </style>
  </defs>
  <path class="st0" d="M1.68-.02h-.12C1.48-.02,1.41-.02,1.33,0h-.07s-.06.02-.09.03c-.15.04-.29.1-.42.19l-.02.02c-.13.09-.25.19-.35.31,0,0-.02.02-.03.03v.02s-.03.04-.05.06v.02c-.06.08-.11.16-.15.25,0,0,0,.02-.01.03,0,0,0,.02-.01.03,0,.03-.02.05-.03.08-.02.05-.04.1-.06.16h0v.05c-.02.08-.04.15-.04.23v.48s0,.06.02.09c0,.04.02.08.03.11v.02c.03.09.07.18.11.27v.02h.01s0,.03.01.03l31.99,55.19c.28.49.79.81,1.35.86h.15c.51,0,1-.22,1.33-.61l18.48-21.92,20.18,7.66s.09.03.1.04c.2.08.41.11.61.11.51,0,1.01-.23,1.35-.64.38-.47.47-1.08.28-1.63l-1.9-26.8,24.82-11.07c.75-.33,1.16-1.14.99-1.94-.17-.8-.87-1.37-1.69-1.38L1.69-.02h-.01ZM55.84,33.3l1.51-1.78,4.64-5.5,8.1,12.7-14.25-5.4h0v-.02ZM90.16,3.9l-18.09,8.06L22.8,3.56l67.35.34h.01ZM70.65,15.25l1.43,20.12-8.43-13.22s-.07-.09-.11-.13c-.04-.05-.08-.1-.12-.15-.04-.04-.08-.07-.12-.1-.03-.03-.06-.05-.09-.08-.04-.03-.07-.05-.11-.08-.07-.04-.14-.07-.22-.11l-.12-.06h0L21.43,6.85l49.22,8.4h0ZM59.25,23.89l-25.32,30.02L5.54,4.92l53.7,18.96h0Z"/>
</svg>