<?xml version="1.0" encoding="UTF-8"?>
<svg id="Calque_1" xmlns="http://www.w3.org/2000/svg" version="1.1" viewBox="0 0 63.85 100">
  <!-- Generator: Adobe Illustrator 30.3.0, SVG Export Plug-In . SVG Version: 2.1.3 Build 182)  -->
  <defs>
    <style>
      .st0 {
        fill: #342d2f;
      }
    </style>
  </defs>
  <path class="st0" d="M0,9.81v80.38c0,5.41,4.4,9.81,9.81,9.81h44.23c5.41,0,9.81-4.4,9.81-9.81V9.81c0-5.41-4.4-9.81-9.81-9.81H9.81C4.4,0,0,4.4,0,9.81ZM9.81,3.91h44.23c3.25,0,5.89,2.64,5.89,5.89v80.38c0,3.25-2.64,5.89-5.89,5.89H9.81c-3.25,0-5.89-2.64-5.89-5.89V9.81c0-3.25,2.64-5.89,5.89-5.89h0Z"/>
  <path class="st0" d="M16.34,78.09h31.17c4.03,0,7.3-3.27,7.3-7.3V15.76c0-4.02-3.27-7.3-7.3-7.3h-31.17c-4.02,0-7.3,3.27-7.3,7.3v55.03c0,4.02,3.27,7.3,7.3,7.3ZM12.17,15.76c0-2.3,1.87-4.16,4.16-4.16h31.17c2.3,0,4.17,1.87,4.17,4.16v55.03c0,2.3-1.87,4.16-4.17,4.16h-31.17c-2.3,0-4.16-1.87-4.16-4.16V15.76Z"/>
  <path class="st0" d="M31.92,80.58c-3.69,0-6.69,3-6.69,6.69s3,6.69,6.69,6.69,6.69-3,6.69-6.69-3-6.69-6.69-6.69ZM31.92,91.61c-2.39,0-4.34-1.95-4.34-4.34s1.95-4.34,4.34-4.34,4.34,1.95,4.34,4.34-1.95,4.34-4.34,4.34Z"/>
</svg>