<?xml version="1.0" encoding="UTF-8"?>
<svg id="Calque_1" xmlns="http://www.w3.org/2000/svg" version="1.1" viewBox="0 0 97.77 97.67">
  <!-- Generator: Adobe Illustrator 30.3.0, SVG Export Plug-In . SVG Version: 2.1.3 Build 182)  -->
  <defs>
    <style>
      .st0 {
        fill: #eaeaea;
      }
    </style>
  </defs>
  <path class="st0" d="M50.96,0h-4.65s-.03,0-.04.02C20.31,1.41,0,22.81,0,48.84s20.31,47.44,46.27,48.82h4.7c26.27-1.09,46.81-22.5,46.81-48.82S77.23,1.12,50.96,0ZM83.18,19.58c-3.5,2.64-7.28,4.85-11.26,6.59-3.37-8.28-8.69-15.76-15.46-21.79,10.41,1.76,19.8,7.09,26.73,15.19h-.01ZM50.78,4.6c7.88,6.06,13.95,13.96,17.63,22.97-5.67,2.03-11.59,3.12-17.63,3.25V4.6ZM50.78,34.6c6.47-.13,12.83-1.3,18.93-3.49,1.85,5.61,2.81,11.46,2.84,17.42h-21.76v-13.93h0ZM50.78,52.33h21.65c-.35,5.83-1.58,11.52-3.67,16.9-5.79-1.93-11.83-2.97-17.98-3.09,0,0,0-13.81,0-13.81ZM40.67,4.5c-6.5,5.82-11.66,13.01-15.02,20.94-3.72-1.77-7.24-3.95-10.48-6.5,6.71-7.56,15.67-12.62,25.51-14.44h-.01ZM12.77,21.86c3.56,2.81,7.43,5.19,11.5,7.11-2.19,6.27-3.31,12.85-3.34,19.59H3.78c.06-9.71,3.16-18.92,8.99-26.7ZM14.2,77.63c-6.02-7.23-9.56-15.94-10.28-25.28h17.13c.37,6.54,1.77,12.9,4.18,18.89-3.91,1.73-7.62,3.88-11.03,6.39ZM16.75,80.45c3.1-2.25,6.46-4.18,10-5.75,3.36,7.03,8.03,13.23,13.92,18.48-9.03-1.68-17.42-6.13-23.92-12.74h0ZM47,93.49c-7.15-5.37-12.91-12.33-16.73-20.2,5.36-1.95,10.98-3.07,16.73-3.33v23.53ZM47,66.18c-6.28.27-12.42,1.49-18.26,3.64-2.23-5.55-3.54-11.42-3.9-17.48h22.16v13.84ZM47,48.55h-22.28c.03-6.2,1.05-12.28,3.04-18.07,6.14,2.42,12.6,3.79,19.24,4.08v13.99ZM47,30.77c-6.16-.29-12.16-1.57-17.88-3.82,3.79-8.95,9.95-16.79,17.88-22.75v26.57ZM50.78,93.1v-23.18c5.64.11,11.18,1.06,16.5,2.8-3.72,7.91-9.4,14.92-16.5,20.38ZM56.46,93.3c6.15-5.46,10.99-11.93,14.39-19.28,3.81,1.55,7.42,3.51,10.76,5.84-6.74,7.1-15.57,11.81-25.14,13.44h-.01ZM84.1,77c-3.65-2.59-7.62-4.76-11.8-6.46,2.24-5.79,3.55-11.92,3.9-18.22h17.64c-.69,9.06-4.05,17.57-9.75,24.69h.01ZM93.99,48.53h-17.67c-.03-6.43-1.07-12.75-3.09-18.8,4.36-1.88,8.48-4.29,12.29-7.17,5.49,7.62,8.41,16.58,8.48,25.97h-.01Z"/>
</svg>